<?xml version="1.0" encoding="UTF-8" standalone="no"?>
<!-- Created with Inkscape (http://www.inkscape.org/) -->

<svg
   xmlns:dc="http://purl.org/dc/elements/1.1/"
   xmlns:cc="http://creativecommons.org/ns#"
   xmlns:rdf="http://www.w3.org/1999/02/22-rdf-syntax-ns#"
   xmlns:svg="http://www.w3.org/2000/svg"
   xmlns="http://www.w3.org/2000/svg"
   xmlns:sodipodi="http://sodipodi.sourceforge.net/DTD/sodipodi-0.dtd"
   xmlns:inkscape="http://www.inkscape.org/namespaces/inkscape"
   width="210mm"
   height="297mm"
   viewBox="0 0 744.09448819 1052.3622047"
   id="svg2"
   version="1.1"
   inkscape:version="0.91 r13725"
   sodipodi:docname="drawer-icon.svg"
   inkscape:export-filename="/home/julian/dev/mensaDD/app/src/main/res/drawable-xxhdpi/banner.png"
   inkscape:export-xdpi="23.779133"
   inkscape:export-ydpi="23.779133">
  <sodipodi:namedview
     id="base"
     pagecolor="#ffffff"
     bordercolor="#666666"
     borderopacity="1.0"
     inkscape:pageopacity="0.0"
     inkscape:pageshadow="2"
     inkscape:zoom="0.175"
     inkscape:cx="-702.21568"
     inkscape:cy="-2003.6182"
     inkscape:document-units="px"
     inkscape:current-layer="layer1"
     showgrid="false"
     inkscape:window-width="1877"
     inkscape:window-height="1056"
     inkscape:window-x="43"
     inkscape:window-y="24"
     inkscape:window-maximized="1" />
  <defs
     id="defs4">
    <clipPath
       id="clipPath4280"
       clipPathUnits="userSpaceOnUse">
      <circle
         r="328.57144"
         cy="696.64789"
         cx="335.71429"
         id="circle4282"
         style="opacity:1;fill:#2e394d;fill-opacity:1;stroke:#3e3e3e;stroke-width:0.40000001;stroke-linecap:round;stroke-miterlimit:4;stroke-dasharray:none;stroke-opacity:1" />
    </clipPath>
    <clipPath
       clipPathUnits="userSpaceOnUse"
       id="clipPath4202">
      <circle
         r="328.57144"
         cy="696.64789"
         cx="335.71429"
         id="circle4204"
         style="opacity:1;fill:#2e394d;fill-opacity:1;stroke:#3e3e3e;stroke-width:0.40000001;stroke-linecap:round;stroke-miterlimit:4;stroke-dasharray:none;stroke-opacity:1"
         inkscape:export-xdpi="11.928994"
         inkscape:export-ydpi="11.928994" />
    </clipPath>
    <filter
       style="color-interpolation-filters:sRGB;"
       inkscape:label="Drop Shadow"
       id="filter4328">
      <feFlood
         flood-opacity="0.498039"
         flood-color="rgb(0,0,0)"
         result="flood"
         id="feFlood4330" />
      <feComposite
         in="flood"
         in2="SourceGraphic"
         operator="in"
         result="composite1"
         id="feComposite4332" />
      <feGaussianBlur
         in="composite1"
         stdDeviation="10"
         result="blur"
         id="feGaussianBlur4334" />
      <feOffset
         dx="4.41619e-13"
         dy="3"
         result="offset"
         id="feOffset4336" />
      <feComposite
         in="SourceGraphic"
         in2="offset"
         operator="over"
         result="composite2"
         id="feComposite4338" />
    </filter>
    <filter
       style="color-interpolation-filters:sRGB"
       inkscape:label="Drop Shadow"
       id="filter4328-7">
      <feFlood
         flood-opacity="0.498039"
         flood-color="rgb(0,0,0)"
         result="flood"
         id="feFlood4330-5" />
      <feComposite
         in="flood"
         in2="SourceGraphic"
         operator="in"
         result="composite1"
         id="feComposite4332-3" />
      <feGaussianBlur
         in="composite1"
         stdDeviation="10"
         result="blur"
         id="feGaussianBlur4334-5" />
      <feOffset
         dx="4.41619e-13"
         dy="3"
         result="offset"
         id="feOffset4336-6" />
      <feComposite
         in="SourceGraphic"
         in2="offset"
         operator="over"
         result="composite2"
         id="feComposite4338-2" />
    </filter>
  </defs>
  <metadata
     id="metadata7">
    <rdf:RDF>
      <cc:Work
         rdf:about="">
        <dc:format>image/svg+xml</dc:format>
        <dc:type
           rdf:resource="http://purl.org/dc/dcmitype/StillImage" />
        <dc:title />
      </cc:Work>
    </rdf:RDF>
  </metadata>
  <g
     inkscape:label="Ebene 1"
     inkscape:groupmode="layer"
     id="layer1">
    <rect
       inkscape:export-ydpi="5.4782605"
       inkscape:export-xdpi="5.4782605"
       y="805.53595"
       x="-866.57568"
       height="659.03632"
       width="659.03632"
       id="rect4284"
       style="opacity:0;fill:#000000;fill-opacity:1;stroke:#000000;stroke-width:36.96517563;stroke-linecap:round;stroke-linejoin:round;stroke-miterlimit:4;stroke-dasharray:none;stroke-opacity:1"
       inkscape:export-filename="/home/julian/dev/mensaDD/app/src/main/res/mipmap-mdpi/ic_launcher.png" />
    <g
       inkscape:export-ydpi="11.928994"
       inkscape:export-xdpi="11.928994"
       clip-path="url(#clipPath4280)"
       style="stroke:#000000;stroke-opacity:1;fill:#000000;fill-opacity:1;opacity:0.319"
       id="g4241" />
    <circle
       inkscape:export-ydpi="58.434784"
       inkscape:export-xdpi="58.434784"
       style="opacity:1;fill:#2e394d;fill-opacity:1;stroke:#000000;stroke-width:0.40000001;stroke-linecap:round;stroke-miterlimit:4;stroke-dasharray:none;stroke-opacity:1;filter:url(#filter4328)"
       id="path4136"
       cx="-537.0575"
       cy="1135.0541"
       r="328.57144"
       inkscape:export-filename="/home/julian/dev/mensaDD/app/src/main/res/mipmap-mdpi/ic_launcher.png" />
    <path
       inkscape:export-filename="/home/julian/dev/mensaDD/app/src/main/res/mipmap-mdpi/ic_launcher.png"
       inkscape:export-ydpi="5.4782605"
       inkscape:export-xdpi="5.4782605"
       style="fill:none;fill-rule:evenodd;stroke:#fefefe;stroke-width:47.81105804;stroke-linecap:round;stroke-linejoin:round;stroke-miterlimit:4;stroke-dasharray:none;stroke-opacity:1"
       d="m -693.54173,1296.9874 c 0,0 -59.38525,-300.46666 47.38049,-325.67665 66.31398,-15.65834 113.09712,113.37615 116.80364,167.75415 6.2191,91.2398 29.55044,-184.02073 94.38981,-173.16936 112.77504,18.87378 57.15884,338.23476 57.15884,338.23476"
       id="path4230"
       inkscape:connector-curvature="0"
       sodipodi:nodetypes="casac" />
    <path
       inkscape:export-filename="/home/julian/dev/mensaDD/app/src/main/res/drawable-xxxhdpi/banner.png"
       inkscape:export-ydpi="30.109339"
       inkscape:export-xdpi="30.109339"
       style="fill:none;fill-rule:evenodd;stroke:#fefefe;stroke-width:48.67112732;stroke-linecap:round;stroke-linejoin:round;stroke-miterlimit:4;stroke-dasharray:none;stroke-opacity:1"
       d="m -1502.037,2668.8247 c 0,0 -64.2298,-324.9789 51.2459,-352.2456 71.7239,-16.9357 122.3236,122.6255 126.3325,181.4397 6.7264,98.6832 31.9612,-199.0333 102.0901,-187.2967 121.9754,20.4136 61.822,365.8281 61.822,365.8281"
       id="path4230-2"
       inkscape:connector-curvature="0"
       sodipodi:nodetypes="casac" />
    <path
       sodipodi:nodetypes="cassaac"
       inkscape:connector-curvature="0"
       id="path4221"
       d="m -1058.179,2490.2642 c 0,0 212.46312,77.7838 279.87066,13.1426 36.66087,-35.1563 40.93036,-116.1546 -0.76679,-152.3788 -48.99314,-42.5625 -139.60819,-76.4696 -225.30617,-27.5761 -45.2008,25.7886 -59.8563,92.8634 -60.7941,145.3822 -1.2309,68.9299 15.7143,155.0743 72.92751,193.5384 58.21463,39.1374 210.36785,-5.6098 210.36785,-5.6098"
       style="fill:none;fill-rule:evenodd;stroke:#fefefe;stroke-width:48.67112732;stroke-linecap:round;stroke-linejoin:round;stroke-miterlimit:4;stroke-dasharray:none;stroke-opacity:1"
       inkscape:export-filename="/home/julian/dev/mensaDD/app/src/main/res/drawable-xxxhdpi/banner.png"
       inkscape:export-xdpi="30.109339"
       inkscape:export-ydpi="30.109339" />
    <path
       sodipodi:nodetypes="ccaaac"
       inkscape:connector-curvature="0"
       id="path4223"
       d="m -680.00001,2320.1167 8.57143,362.8571 c 0,0 -36.27169,-227.5478 24.59029,-312.4684 26.20062,-36.5577 79.06201,-55.5289 123.98111,-53.2459 52.3951,2.6629 109.8639,31.9018 137.5736,76.4497 49.4788,79.5454 13.855,280.6932 13.855,280.6932"
       style="fill:none;fill-rule:evenodd;stroke:#fefefe;stroke-width:45;stroke-linecap:round;stroke-linejoin:round;stroke-miterlimit:4;stroke-dasharray:none;stroke-opacity:1"
       inkscape:export-filename="/home/julian/dev/mensaDD/app/src/main/res/drawable-xxxhdpi/banner.png"
       inkscape:export-xdpi="30.109339"
       inkscape:export-ydpi="30.109339" />
    <path
       sodipodi:nodetypes="caaaaac"
       inkscape:connector-curvature="0"
       id="path4225"
       d="m -25.692302,2363.7715 c 0,0 -137.732398,-77.7782 -197.190098,-45.8581 -42.4026,22.764 -69.2685,90.9891 -50.4439,135.2815 29.9911,70.5656 164.1894,30.9492 210.947498,91.7163 21.6871,28.1847 36.5184,76.3917 16.0503,105.4738 -32.2092,45.7644 -111.726398,50.0974 -164.763398,32.2398 -34.9904,-11.7814 -73.6989,-82.6839 -73.6989,-82.6839"
       style="fill:none;fill-rule:evenodd;stroke:#fefefe;stroke-width:45;stroke-linecap:round;stroke-linejoin:round;stroke-miterlimit:4;stroke-dasharray:none;stroke-opacity:1"
       inkscape:export-filename="/home/julian/dev/mensaDD/app/src/main/res/drawable-xxxhdpi/banner.png"
       inkscape:export-xdpi="30.109339"
       inkscape:export-ydpi="30.109339" />
    <path
       sodipodi:nodetypes="caaaaac"
       inkscape:connector-curvature="0"
       id="path4227"
       d="m 93.578818,2321.4028 c 0,0 151.170032,-25.8269 201.491532,19.1097 32.2653,28.8127 25.2393,83.7574 26.7345,126.9891 2.0474,59.198 16.9805,133.7245 -24.5067,176.0023 -43.1838,44.0068 -130.09768,61.1481 -182.6859,28.9624 -55.420092,-33.9189 -99.484862,-133.4109 -60.415742,-185.329 54.115162,-71.9123 269.836142,9.3267 269.836142,9.3267"
       style="fill:none;fill-rule:evenodd;stroke:#fefefe;stroke-width:45;stroke-linecap:round;stroke-linejoin:round;stroke-miterlimit:4;stroke-dasharray:none;stroke-opacity:1"
       inkscape:export-filename="/home/julian/dev/mensaDD/app/src/main/res/drawable-xxxhdpi/banner.png"
       inkscape:export-xdpi="30.109339"
       inkscape:export-ydpi="30.109339" />
    <path
       sodipodi:nodetypes="saaass"
       inkscape:connector-curvature="0"
       id="path4229"
       d="m 419.81035,2650.2536 c 7.2635,75.1946 184.523,39.6093 249.098,-12.7604 62.8211,-50.9473 75.055,-154.6937 62.185,-234.5466 -12.8906,-79.9807 -60.8329,-166.5278 -132.9389,-203.4577 -54.7524,-28.0421 -178.776,-49.9082 -184.3573,8.3713 -18.6113,194.3376 -15.2622,222.1418 6.0132,442.3934 z"
       style="fill:none;fill-rule:evenodd;stroke:#fefefe;stroke-width:45;stroke-linecap:round;stroke-linejoin:round;stroke-miterlimit:4;stroke-dasharray:none;stroke-opacity:1"
       inkscape:export-filename="/home/julian/dev/mensaDD/app/src/main/res/drawable-xxxhdpi/banner.png"
       inkscape:export-xdpi="30.109339"
       inkscape:export-ydpi="30.109339" />
    <path
       sodipodi:nodetypes="saaass"
       inkscape:connector-curvature="0"
       id="path4229-7"
       d="m 804.75765,2663.966 c 7.2635,58.0517 184.8984,40.0688 249.09785,-12.7605 62.9846,-51.8296 72.7419,-156.946 59.3279,-237.4036 -13.1061,-78.6102 -60.7066,-161.378 -130.08165,-200.6007 -51.0364,-28.8545 -170.2045,-64.1939 -175.7858,-5.9143 -18.6113,194.3376 -30.0307,237.1143 -2.5583,456.6791 z"
       style="fill:none;fill-rule:evenodd;stroke:#fefefe;stroke-width:45;stroke-linecap:round;stroke-linejoin:round;stroke-miterlimit:4;stroke-dasharray:none;stroke-opacity:1"
       inkscape:export-filename="/home/julian/dev/mensaDD/app/src/main/res/drawable-xxxhdpi/banner.png"
       inkscape:export-xdpi="30.109339"
       inkscape:export-ydpi="30.109339" />
    <path
       inkscape:export-filename="/home/julian/dev/mensaDD/app/src/main/res/drawable-xxxhdpi/banner_grey.png"
       inkscape:export-ydpi="30.109344"
       inkscape:export-xdpi="30.109344"
       style="fill:none;fill-rule:evenodd;stroke:#888888;stroke-width:48.67112732;stroke-linecap:round;stroke-linejoin:round;stroke-miterlimit:4;stroke-dasharray:none;stroke-opacity:1"
       d="m -1409.1289,3628.5042 c 0,0 -64.2298,-324.9789 51.2459,-352.2456 71.7239,-16.9357 122.3236,122.6255 126.3325,181.4397 6.7264,98.6832 31.9612,-199.0333 102.0901,-187.2967 121.9754,20.4136 61.822,365.8281 61.822,365.8281"
       id="path4230-2-3"
       inkscape:connector-curvature="0"
       sodipodi:nodetypes="casac" />
    <path
       sodipodi:nodetypes="cassaac"
       inkscape:connector-curvature="0"
       id="path4221-6"
       d="m -965.27094,3449.9437 c 0,0 212.46312,77.7838 279.87066,13.1426 36.66087,-35.1563 40.93036,-116.1546 -0.76679,-152.3788 -48.99314,-42.5625 -139.60819,-76.4696 -225.30617,-27.5761 -45.2008,25.7886 -59.8563,92.8634 -60.7941,145.3822 -1.2309,68.9299 15.7143,155.0743 72.92751,193.5384 58.21463,39.1374 210.36785,-5.6098 210.36785,-5.6098"
       style="fill:none;fill-rule:evenodd;stroke:#888888;stroke-width:48.67112732;stroke-linecap:round;stroke-linejoin:round;stroke-miterlimit:4;stroke-dasharray:none;stroke-opacity:1"
       inkscape:export-filename="/home/julian/dev/mensaDD/app/src/main/res/drawable-xxxhdpi/banner_grey.png"
       inkscape:export-xdpi="30.109344"
       inkscape:export-ydpi="30.109344" />
    <path
       sodipodi:nodetypes="ccaaac"
       inkscape:connector-curvature="0"
       id="path4223-7"
       d="m -587.09195,3279.7962 8.57143,362.8571 c 0,0 -36.27169,-227.5478 24.59029,-312.4684 26.20062,-36.5577 79.06201,-55.5289 123.98109,-53.2459 52.3951,2.6629 109.8639,31.9018 137.5736,76.4497 49.4788,79.5454 13.855,280.6932 13.855,280.6932"
       style="fill:none;fill-rule:evenodd;stroke:#888888;stroke-width:45;stroke-linecap:round;stroke-linejoin:round;stroke-miterlimit:4;stroke-dasharray:none;stroke-opacity:1"
       inkscape:export-filename="/home/julian/dev/mensaDD/app/src/main/res/drawable-xxxhdpi/banner_grey.png"
       inkscape:export-xdpi="30.109344"
       inkscape:export-ydpi="30.109344" />
    <path
       sodipodi:nodetypes="caaaaac"
       inkscape:connector-curvature="0"
       id="path4225-5"
       d="m 67.215763,3323.451 c 0,0 -137.7324,-77.7782 -197.190103,-45.8581 -42.4026,22.764 -69.2685,90.9891 -50.4439,135.2815 29.9911,70.5656 164.189403,30.9492 210.947503,91.7163 21.6871,28.1847 36.5184,76.3917 16.0503,105.4738 -32.2092,45.7644 -111.7264,50.0974 -164.763403,32.2398 -34.9904,-11.7814 -73.6989,-82.6839 -73.6989,-82.6839"
       style="fill:none;fill-rule:evenodd;stroke:#888888;stroke-width:45;stroke-linecap:round;stroke-linejoin:round;stroke-miterlimit:4;stroke-dasharray:none;stroke-opacity:1"
       inkscape:export-filename="/home/julian/dev/mensaDD/app/src/main/res/drawable-xxxhdpi/banner_grey.png"
       inkscape:export-xdpi="30.109344"
       inkscape:export-ydpi="30.109344" />
    <path
       sodipodi:nodetypes="caaaaac"
       inkscape:connector-curvature="0"
       id="path4227-3"
       d="m 186.48686,3281.0823 c 0,0 151.17,-25.8269 201.4915,19.1097 32.2653,28.8127 25.2393,83.7574 26.7345,126.9891 2.0474,59.198 16.9805,133.7245 -24.5067,176.0023 -43.1838,44.0068 -130.0976,61.1481 -182.6859,28.9624 -55.42,-33.9189 -99.4848,-133.4109 -60.4157,-185.329 54.1152,-71.9123 269.8361,9.3267 269.8361,9.3267"
       style="fill:none;fill-rule:evenodd;stroke:#888888;stroke-width:45;stroke-linecap:round;stroke-linejoin:round;stroke-miterlimit:4;stroke-dasharray:none;stroke-opacity:1"
       inkscape:export-filename="/home/julian/dev/mensaDD/app/src/main/res/drawable-xxxhdpi/banner_grey.png"
       inkscape:export-xdpi="30.109344"
       inkscape:export-ydpi="30.109344" />
    <path
       sodipodi:nodetypes="saaass"
       inkscape:connector-curvature="0"
       id="path4229-5"
       d="m 512.71839,3609.9331 c 7.2635,75.1946 184.523,39.6093 249.098,-12.7604 62.8211,-50.9473 75.055,-154.6937 62.185,-234.5466 -12.8906,-79.9807 -60.8329,-166.5278 -132.9389,-203.4577 -54.7524,-28.0421 -178.776,-49.9082 -184.3573,8.3713 -18.6113,194.3376 -15.2622,222.1418 6.0132,442.3934 z"
       style="fill:none;fill-rule:evenodd;stroke:#888888;stroke-width:45;stroke-linecap:round;stroke-linejoin:round;stroke-miterlimit:4;stroke-dasharray:none;stroke-opacity:1"
       inkscape:export-filename="/home/julian/dev/mensaDD/app/src/main/res/drawable-xxxhdpi/banner_grey.png"
       inkscape:export-xdpi="30.109344"
       inkscape:export-ydpi="30.109344" />
    <path
       sodipodi:nodetypes="saaass"
       inkscape:connector-curvature="0"
       id="path4229-7-6"
       d="m 897.66569,3623.6455 c 7.2635,58.0517 184.89841,40.0688 249.09791,-12.7605 62.9846,-51.8296 72.7419,-156.946 59.3279,-237.4036 -13.1061,-78.6102 -60.7066,-161.378 -130.0817,-200.6007 -51.0364,-28.8545 -170.20451,-64.1939 -175.78581,-5.9143 -18.6113,194.3376 -30.0307,237.1143 -2.5583,456.6791 z"
       style="fill:none;fill-rule:evenodd;stroke:#888888;stroke-width:45;stroke-linecap:round;stroke-linejoin:round;stroke-miterlimit:4;stroke-dasharray:none;stroke-opacity:1"
       inkscape:export-filename="/home/julian/dev/mensaDD/app/src/main/res/drawable-xxxhdpi/banner_grey.png"
       inkscape:export-xdpi="30.109344"
       inkscape:export-ydpi="30.109344" />
    <rect
       style="opacity:1;fill:#2e394d;fill-opacity:1;stroke:none;stroke-width:20;stroke-linecap:round;stroke-linejoin:round;stroke-miterlimit:4;stroke-dasharray:none;stroke-opacity:1"
       id="rect4193"
       width="4280"
       height="1308.5714"
       x="-2337.1428"
       y="3863.7908" />
    <path
       inkscape:export-filename="/home/julian/dev/mensaDD/app/src/main/res/drawable-xxxhdpi/banner.png"
       inkscape:export-ydpi="30.109339"
       inkscape:export-xdpi="30.109339"
       style="fill:none;fill-rule:evenodd;stroke:#fefefe;stroke-width:48.67112732;stroke-linecap:round;stroke-linejoin:round;stroke-miterlimit:4;stroke-dasharray:none;stroke-opacity:1"
       d="m -1454.8432,4714.2185 c 0,0 -64.2298,-324.9789 51.2459,-352.2456 71.7239,-16.9357 122.3236,122.6255 126.3325,181.4397 6.7264,98.6832 31.9612,-199.0333 102.0901,-187.2967 121.9754,20.4136 61.822,365.8281 61.822,365.8281"
       id="path4230-2-2"
       inkscape:connector-curvature="0"
       sodipodi:nodetypes="casac" />
    <path
       sodipodi:nodetypes="cassaac"
       inkscape:connector-curvature="0"
       id="path4221-9"
       d="m -1010.9852,4535.658 c 0,0 212.46309,77.7838 279.87063,13.1426 36.66087,-35.1563 40.93036,-116.1546 -0.76679,-152.3788 -48.99314,-42.5625 -139.60819,-76.4696 -225.30617,-27.5761 -45.20077,25.7886 -59.85627,92.8634 -60.79407,145.3822 -1.2309,68.9299 15.7143,155.0743 72.92748,193.5384 58.21463,39.1374 210.36785,-5.6098 210.36785,-5.6098"
       style="fill:none;fill-rule:evenodd;stroke:#fefefe;stroke-width:48.67112732;stroke-linecap:round;stroke-linejoin:round;stroke-miterlimit:4;stroke-dasharray:none;stroke-opacity:1"
       inkscape:export-filename="/home/julian/dev/mensaDD/app/src/main/res/drawable-xxxhdpi/banner.png"
       inkscape:export-xdpi="30.109339"
       inkscape:export-ydpi="30.109339" />
    <path
       sodipodi:nodetypes="ccaaac"
       inkscape:connector-curvature="0"
       id="path4223-1"
       d="m -632.80624,4365.5105 8.57143,362.8571 c 0,0 -36.27169,-227.5478 24.59029,-312.4684 26.20062,-36.5577 79.06201,-55.5289 123.98109,-53.2459 52.3951,2.6629 109.8639,31.9018 137.5736,76.4497 49.4788,79.5454 13.855,280.6932 13.855,280.6932"
       style="fill:none;fill-rule:evenodd;stroke:#fefefe;stroke-width:45;stroke-linecap:round;stroke-linejoin:round;stroke-miterlimit:4;stroke-dasharray:none;stroke-opacity:1"
       inkscape:export-filename="/home/julian/dev/mensaDD/app/src/main/res/drawable-xxxhdpi/banner.png"
       inkscape:export-xdpi="30.109339"
       inkscape:export-ydpi="30.109339" />
    <path
       sodipodi:nodetypes="caaaaac"
       inkscape:connector-curvature="0"
       id="path4225-2"
       d="m 21.501471,4409.1653 c 0,0 -137.732401,-77.7782 -197.190101,-45.8581 -42.4026,22.764 -69.2685,90.9891 -50.4439,135.2815 29.9911,70.5656 164.189401,30.9492 210.947501,91.7163 21.6871004,28.1847 36.5184,76.3917 16.05030042,105.4738 -32.20920042,45.7644 -111.72640142,50.0974 -164.76340142,32.2398 -34.9904,-11.7814 -73.6989,-82.6839 -73.6989,-82.6839"
       style="fill:none;fill-rule:evenodd;stroke:#fefefe;stroke-width:45;stroke-linecap:round;stroke-linejoin:round;stroke-miterlimit:4;stroke-dasharray:none;stroke-opacity:1"
       inkscape:export-filename="/home/julian/dev/mensaDD/app/src/main/res/drawable-xxxhdpi/banner.png"
       inkscape:export-xdpi="30.109339"
       inkscape:export-ydpi="30.109339" />
    <path
       sodipodi:nodetypes="caaaaac"
       inkscape:connector-curvature="0"
       id="path4227-7"
       d="m 140.77257,4366.7966 c 0,0 151.17,-25.8269 201.4915,19.1097 32.2653,28.8127 25.2393,83.7574 26.7345,126.9891 2.0474,59.198 16.9805,133.7245 -24.5067,176.0023 -43.1838,44.0068 -130.0976,61.1481 -182.6859,28.9624 -55.42,-33.9189 -99.484799,-133.4109 -60.4157,-185.329 54.1152,-71.9123 269.8361,9.3267 269.8361,9.3267"
       style="fill:none;fill-rule:evenodd;stroke:#fefefe;stroke-width:45;stroke-linecap:round;stroke-linejoin:round;stroke-miterlimit:4;stroke-dasharray:none;stroke-opacity:1"
       inkscape:export-filename="/home/julian/dev/mensaDD/app/src/main/res/drawable-xxxhdpi/banner.png"
       inkscape:export-xdpi="30.109339"
       inkscape:export-ydpi="30.109339" />
    <path
       sodipodi:nodetypes="saaass"
       inkscape:connector-curvature="0"
       id="path4229-0"
       d="m 467.00407,4695.6474 c 7.2635,75.1946 184.52298,39.6093 249.09798,-12.7604 62.8211,-50.9473 75.055,-154.6937 62.185,-234.5466 -12.8906,-79.9807 -60.8329,-166.5278 -132.9389,-203.4577 -54.7524,-28.0421 -178.77598,-49.9082 -184.35728,8.3713 -18.6113,194.3376 -15.2622,222.1418 6.0132,442.3934 z"
       style="fill:none;fill-rule:evenodd;stroke:#fefefe;stroke-width:45;stroke-linecap:round;stroke-linejoin:round;stroke-miterlimit:4;stroke-dasharray:none;stroke-opacity:1"
       inkscape:export-filename="/home/julian/dev/mensaDD/app/src/main/res/drawable-xxxhdpi/banner.png"
       inkscape:export-xdpi="30.109339"
       inkscape:export-ydpi="30.109339" />
    <path
       sodipodi:nodetypes="saaass"
       inkscape:connector-curvature="0"
       id="path4229-7-9"
       d="m 851.95135,4709.3598 c 7.2635,58.0517 184.89845,40.0688 249.09795,-12.7605 62.9846,-51.8296 72.7419,-156.946 59.3279,-237.4036 -13.1061,-78.6102 -60.7066,-161.378 -130.0817,-200.6007 -51.03645,-28.8545 -170.20455,-64.1939 -175.78585,-5.9143 -18.6113,194.3376 -30.0307,237.1143 -2.5583,456.6791 z"
       style="fill:none;fill-rule:evenodd;stroke:#fefefe;stroke-width:45;stroke-linecap:round;stroke-linejoin:round;stroke-miterlimit:4;stroke-dasharray:none;stroke-opacity:1"
       inkscape:export-filename="/home/julian/dev/mensaDD/app/src/main/res/drawable-xxxhdpi/banner.png"
       inkscape:export-xdpi="30.109339"
       inkscape:export-ydpi="30.109339" />
  </g>
</svg>
