<?xml version="1.0" encoding="UTF-8" standalone="no"?>
<svg
   xmlns:dc="http://purl.org/dc/elements/1.1/"
   xmlns:cc="http://creativecommons.org/ns#"
   xmlns:rdf="http://www.w3.org/1999/02/22-rdf-syntax-ns#"
   xmlns:svg="http://www.w3.org/2000/svg"
   xmlns="http://www.w3.org/2000/svg"
   xmlns:sodipodi="http://sodipodi.sourceforge.net/DTD/sodipodi-0.dtd"
   xmlns:inkscape="http://www.inkscape.org/namespaces/inkscape"
   inkscape:version="1.0 (4035a4fb49, 2020-05-01)"
   sodipodi:docname="banner_christmas.svg"
   id="svg82"
   version="1.1"
   viewBox="0 0 757.88763 171.84035"
   height="171.84035mm"
   width="757.88763mm">
  <defs
     id="defs76" />
  <sodipodi:namedview
     inkscape:snap-global="false"
     inkscape:window-maximized="0"
     inkscape:window-y="28"
     inkscape:window-x="50"
     inkscape:window-height="1024"
     inkscape:window-width="1502"
     fit-margin-bottom="0"
     fit-margin-right="0"
     fit-margin-left="0"
     fit-margin-top="0"
     showgrid="false"
     inkscape:document-rotation="0"
     inkscape:current-layer="layer1"
     inkscape:document-units="mm"
     inkscape:cy="-418.85596"
     inkscape:cx="1397.2148"
     inkscape:zoom="0.17449559"
     inkscape:pageshadow="2"
     inkscape:pageopacity="0.0"
     borderopacity="1.0"
     bordercolor="#666666"
     pagecolor="#ffffff"
     id="base" />
  <metadata
     id="metadata79">
    <rdf:RDF>
      <cc:Work
         rdf:about="">
        <dc:format>image/svg+xml</dc:format>
        <dc:type
           rdf:resource="http://purl.org/dc/dcmitype/StillImage" />
        <dc:title></dc:title>
      </cc:Work>
    </rdf:RDF>
  </metadata>
  <g
     transform="translate(443.19976,150.93208)"
     id="layer1"
     inkscape:groupmode="layer"
     inkscape:label="Ebene 1">
    <path
       id="path106"
       d="M -354.82031 -102.16406 C -358.32796 -101.76801 -361.54972 -100.02759 -363.86719 -97.894531 C -366.95714 -95.050448 -369.14669 -91.511916 -371.10352 -87.589844 C -374.58704 -80.607817 -377.12374 -72.277119 -379.27344 -64.365234 C -381.0511 -69.412367 -383.15655 -74.524894 -385.83203 -79.378906 C -389.24197 -85.565414 -393.34206 -91.26261 -398.66211 -95.414062 C -403.98216 -99.565515 -411.12844 -102.05521 -418.41797 -100.33398 C -429.67364 -97.67624 -436.19389 -87.695197 -439.42969 -76.832031 C -442.66548 -65.968866 -443.39474 -53.265137 -443.1582 -40.927734 C -442.68513 -16.252928 -438.03906 7.09375 -438.03906 7.09375 A 6.8680501 6.8680501 0 0 0 -429.9707 12.5 A 6.8680501 6.8680501 0 0 0 -424.56445 4.4296875 C -424.56445 4.4296875 -428.98277 -18.082309 -429.42578 -41.189453 C -429.64729 -52.743025 -428.79689 -64.412228 -426.26562 -72.910156 C -423.73436 -81.408085 -420.30096 -85.774954 -415.26172 -86.964844 C -412.43021 -87.63343 -410.19924 -86.994035 -407.11328 -84.585938 C -404.02732 -82.17784 -400.69317 -77.885737 -397.86133 -72.748047 C -392.19765 -62.472666 -388.49455 -48.687668 -388.03711 -41.976562 C -387.90953 -40.104791 -387.76884 -38.641415 -387.53125 -37.292969 C -387.41245 -36.618745 -387.2808 -35.977762 -387.00781 -35.177734 C -386.73482 -34.377707 -386.55068 -33.319912 -384.81445 -31.753906 C -383.94634 -30.970903 -382.4393 -30.099869 -380.6875 -29.9375 C -378.9357 -29.775131 -377.31601 -30.350737 -376.33008 -30.947266 C -374.35821 -32.140324 -373.98402 -33.116911 -373.57812 -33.816406 C -372.76633 -35.215397 -372.4959 -36.158117 -372.12109 -37.335938 C -370.62187 -42.047221 -369.04803 -49.545952 -366.84766 -57.927734 C -364.64728 -66.309517 -361.85999 -75.350889 -358.8125 -81.458984 C -357.28875 -84.513032 -355.65969 -86.77902 -354.56445 -87.787109 C -353.46922 -88.795199 -353.61763 -88.547675 -353.50781 -88.529297 C -348.10237 -87.624652 -344.50976 -83.350663 -341.6543 -74.607422 C -338.79883 -65.864181 -337.63789 -53.656978 -337.60938 -41.503906 C -337.55235 -17.197763 -341.69141 6.7636719 -341.69141 6.7636719 A 6.8680501 6.8680501 0 0 0 -336.10352 14.708984 A 6.8680501 6.8680501 0 0 0 -328.16016 9.1210938 C -328.16016 9.1210938 -323.81234 -15.661136 -323.87305 -41.537109 C -323.9034 -54.475096 -324.95249 -67.717774 -328.5957 -78.873047 C -332.23892 -90.028319 -339.43359 -100.10023 -351.24023 -102.07617 C -352.44978 -102.2786 -353.6511 -102.29608 -354.82031 -102.16406 z "
       style="color:#000000;font-style:normal;font-variant:normal;font-weight:normal;font-stretch:normal;font-size:medium;line-height:normal;font-family:sans-serif;font-variant-ligatures:normal;font-variant-position:normal;font-variant-caps:normal;font-variant-numeric:normal;font-variant-alternates:normal;font-variant-east-asian:normal;font-feature-settings:normal;font-variation-settings:normal;text-indent:0;text-align:start;text-decoration:none;text-decoration-line:none;text-decoration-style:solid;text-decoration-color:#000000;letter-spacing:normal;word-spacing:normal;text-transform:none;writing-mode:lr-tb;direction:ltr;text-orientation:mixed;dominant-baseline:auto;baseline-shift:baseline;text-anchor:start;white-space:normal;shape-padding:0;shape-margin:0;inline-size:0;clip-rule:nonzero;display:inline;overflow:visible;visibility:visible;isolation:auto;mix-blend-mode:normal;color-interpolation:sRGB;color-interpolation-filters:linearRGB;solid-color:#000000;solid-opacity:1;vector-effect:none;fill:#ffffff;fill-opacity:1;fill-rule:evenodd;stroke:none;stroke-width:13.7361;stroke-linecap:round;stroke-linejoin:round;stroke-miterlimit:4;stroke-dasharray:none;stroke-dashoffset:0;stroke-opacity:1;color-rendering:auto;image-rendering:auto;shape-rendering:auto;text-rendering:auto;enable-background:accumulate;stop-color:#000000;stop-opacity:1;opacity:1" />
    <path
       id="path110"
       d="M -263.81055 -105.36133 C -273.65843 -105.65029 -284.06224 -103.49157 -294.25586 -97.675781 C -302.58282 -92.924965 -307.58192 -84.786716 -310.58789 -76.322266 C -313.59386 -67.857816 -314.73415 -58.800079 -314.87695 -50.802734 C -315.24626 -30.121996 -310.82586 -3.5135285 -291.25977 9.640625 C -279.74003 17.38528 -264.00525 15.950742 -250.63672 14.09375 C -237.26819 12.236758 -226.12109 8.9472656 -226.12109 8.9472656 A 6.8680501 6.8680501 0 0 0 -221.46875 0.41992188 A 6.8680501 6.8680501 0 0 0 -229.99609 -4.2324219 C -229.99609 -4.2324219 -240.318 -1.2076919 -252.52734 0.48828125 C -264.73669 2.1842544 -278.68597 1.5410197 -283.5957 -1.7597656 C -292.92823 -8.0339589 -298.1507 -21.551215 -300.16211 -35.498047 C -293.96525 -33.551538 -285.51755 -31.138135 -274.92383 -29.181641 C -265.89873 -27.514844 -256.17344 -26.39001 -246.99805 -26.951172 C -237.82265 -27.512333 -228.85038 -29.682236 -222.29688 -35.966797 C -215.31794 -42.659314 -212.14469 -52.438833 -211.99805 -62.208984 C -211.85141 -71.979136 -214.87693 -82.263408 -222.76172 -89.113281 C -232.52971 -97.599159 -247.39742 -104.87973 -263.81055 -105.36133 z M -263.69141 -91.595703 C -250.87999 -91.096482 -239.2872 -85.271414 -231.77148 -78.742188 C -227.88841 -75.368786 -225.63192 -69.111916 -225.73242 -62.416016 C -225.83292 -55.720115 -228.43516 -49.110223 -231.80273 -45.880859 C -234.76118 -43.043826 -240.41802 -41.115785 -247.83594 -40.662109 C -255.25386 -40.208434 -264.08635 -41.148568 -272.42969 -42.689453 C -286.856 -45.353768 -297.92403 -49.133771 -301.13672 -50.257812 C -301.13529 -50.355586 -301.14432 -50.459082 -301.14258 -50.556641 C -301.02071 -57.381269 -299.96195 -65.20099 -297.64453 -71.726562 C -295.32711 -78.252135 -291.87893 -83.216841 -287.44922 -85.744141 C -279.50343 -90.277472 -271.37826 -91.895236 -263.69141 -91.595703 z "
       style="color:#000000;font-style:normal;font-variant:normal;font-weight:normal;font-stretch:normal;font-size:medium;line-height:normal;font-family:sans-serif;font-variant-ligatures:normal;font-variant-position:normal;font-variant-caps:normal;font-variant-numeric:normal;font-variant-alternates:normal;font-variant-east-asian:normal;font-feature-settings:normal;font-variation-settings:normal;text-indent:0;text-align:start;text-decoration:none;text-decoration-line:none;text-decoration-style:solid;text-decoration-color:#000000;letter-spacing:normal;word-spacing:normal;text-transform:none;writing-mode:lr-tb;direction:ltr;text-orientation:mixed;dominant-baseline:auto;baseline-shift:baseline;text-anchor:start;white-space:normal;shape-padding:0;shape-margin:0;inline-size:0;clip-rule:nonzero;display:inline;overflow:visible;visibility:visible;isolation:auto;mix-blend-mode:normal;color-interpolation:sRGB;color-interpolation-filters:linearRGB;solid-color:#000000;solid-opacity:1;vector-effect:none;fill:#ffffff;fill-opacity:1;fill-rule:evenodd;stroke:none;stroke-width:13.7361;stroke-linecap:round;stroke-linejoin:round;stroke-miterlimit:4;stroke-dasharray:none;stroke-dashoffset:0;stroke-opacity:1;color-rendering:auto;image-rendering:auto;shape-rendering:auto;text-rendering:auto;enable-background:accumulate;stop-color:#000000;stop-opacity:1;opacity:1" />
    <path
       id="path114"
       d="M -154.63281 -99.798828 C -168.20041 -100.4884 -183.31671 -95.650614 -192.76953 -84.896484 L -192.95703 -92.800781 A 6.3499999 6.3499999 0 0 0 -199.45508 -99 A 6.3499999 6.3499999 0 0 0 -205.65234 -92.501953 L -204.77344 -55.269531 C -206.25554 -45.382514 -206.4148 -34.907873 -206.20508 -25.212891 C -205.78236 -5.6711502 -203.15625 10.753906 -203.15625 10.753906 A 6.3506349 6.3506349 0 0 0 -190.53711 9.6054688 L -191.98828 -51.789062 C -190.62218 -61.33438 -188.33812 -69.774974 -184.78516 -74.732422 C -179.14062 -82.60824 -165.92129 -87.656209 -155.27734 -87.115234 C -142.60848 -86.47136 -127.92017 -78.814294 -121.52148 -68.527344 C -116.16839 -59.921357 -114.53429 -40.674047 -115.28125 -24.140625 C -116.02821 -7.6072035 -118.47266 6.2285156 -118.47266 6.2285156 A 6.3499999 6.3499999 0 0 0 -113.32617 13.587891 A 6.3499999 6.3499999 0 0 0 -105.9668 8.4433594 C -105.9668 8.4433594 -103.38271 -6.1052214 -102.59375 -23.568359 C -101.80479 -41.031497 -102.12736 -61.392836 -110.73828 -75.236328 C -119.98017 -90.094191 -137.72755 -98.939646 -154.63281 -99.798828 z "
       style="color:#000000;font-style:normal;font-variant:normal;font-weight:normal;font-stretch:normal;font-size:medium;line-height:normal;font-family:sans-serif;font-variant-ligatures:normal;font-variant-position:normal;font-variant-caps:normal;font-variant-numeric:normal;font-variant-alternates:normal;font-variant-east-asian:normal;font-feature-settings:normal;font-variation-settings:normal;text-indent:0;text-align:start;text-decoration:none;text-decoration-line:none;text-decoration-style:solid;text-decoration-color:#000000;letter-spacing:normal;word-spacing:normal;text-transform:none;writing-mode:lr-tb;direction:ltr;text-orientation:mixed;dominant-baseline:auto;baseline-shift:baseline;text-anchor:start;white-space:normal;shape-padding:0;shape-margin:0;inline-size:0;clip-rule:nonzero;display:inline;overflow:visible;visibility:visible;isolation:auto;mix-blend-mode:normal;color-interpolation:sRGB;color-interpolation-filters:linearRGB;solid-color:#000000;solid-opacity:1;vector-effect:none;fill:#ffffff;fill-opacity:1;fill-rule:evenodd;stroke:none;stroke-width:12.7;stroke-linecap:round;stroke-linejoin:round;stroke-miterlimit:4;stroke-dasharray:none;stroke-dashoffset:0;stroke-opacity:1;color-rendering:auto;image-rendering:auto;shape-rendering:auto;text-rendering:auto;enable-background:accumulate;stop-color:#000000;stop-opacity:1;opacity:1" />
    <path
       id="path118"
       d="M -58.8125 -102.06055 C -63.847342 -102.16837 -68.769195 -101.29999 -73.300781 -98.867188 C -81.121123 -94.668805 -86.6547 -87.075508 -89.830078 -78.716797 C -93.005457 -70.358086 -93.917747 -60.940511 -90.376953 -52.609375 C -87.510439 -45.864802 -81.827592 -41.595866 -75.916016 -39.181641 C -70.004439 -36.767415 -63.649371 -35.765956 -57.488281 -34.835938 C -45.166103 -32.9759 -34.432121 -31.057292 -30.03125 -25.337891 C -27.61136 -22.192984 -25.366649 -17.492485 -24.498047 -13.169922 C -23.629445 -8.8473589 -24.139768 -5.260679 -25.662109 -3.0976562 C -28.845921 1.4260543 -34.956173 4.4378375 -42.455078 5.5605469 C -49.953984 6.6832562 -58.515986 5.8027731 -64.943359 3.6386719 C -66.901058 2.9795082 -72.261297 -1.971536 -75.947266 -7.0078125 C -79.633234 -12.044089 -82.195312 -16.722656 -82.195312 -16.722656 A 6.3499999 6.3499999 0 0 0 -90.810547 -19.251953 A 6.3499999 6.3499999 0 0 0 -93.341797 -10.636719 C -93.341797 -10.636719 -90.440312 -5.3079133 -86.195312 0.4921875 C -81.950313 6.2922883 -76.911512 13.008022 -68.994141 15.673828 C -60.453294 18.549537 -50.310663 19.578799 -40.574219 18.121094 C -30.837774 16.663388 -21.181739 12.604911 -15.275391 4.2128906 C -11.021192 -1.8316967 -10.736612 -9.1514032 -12.046875 -15.671875 C -13.357138 -22.192347 -16.266107 -28.272587 -19.966797 -33.082031 C -28.762096 -44.51246 -43.562018 -45.578631 -55.591797 -47.394531 C -61.606686 -48.302481 -67.132557 -49.311017 -71.115234 -50.9375 C -75.097912 -52.563983 -77.323887 -54.365108 -78.689453 -57.578125 C -80.461379 -61.74729 -80.238243 -68.207221 -77.958984 -74.207031 C -75.679725 -80.206841 -71.439577 -85.45161 -67.292969 -87.677734 C -62.59691 -90.198832 -49.630121 -88.376753 -38.376953 -84.222656 C -27.123786 -80.068559 -17.767578 -74.802734 -17.767578 -74.802734 A 6.3499999 6.3499999 0 0 0 -9.1152344 -77.208984 A 6.3499999 6.3499999 0 0 0 -11.523438 -85.861328 C -11.523438 -85.861328 -21.601046 -91.567587 -33.978516 -96.136719 C -41.714434 -98.992426 -50.421096 -101.88084 -58.8125 -102.06055 z "
       style="color:#000000;font-style:normal;font-variant:normal;font-weight:normal;font-stretch:normal;font-size:medium;line-height:normal;font-family:sans-serif;font-variant-ligatures:normal;font-variant-position:normal;font-variant-caps:normal;font-variant-numeric:normal;font-variant-alternates:normal;font-variant-east-asian:normal;font-feature-settings:normal;font-variation-settings:normal;text-indent:0;text-align:start;text-decoration:none;text-decoration-line:none;text-decoration-style:solid;text-decoration-color:#000000;letter-spacing:normal;word-spacing:normal;text-transform:none;writing-mode:lr-tb;direction:ltr;text-orientation:mixed;dominant-baseline:auto;baseline-shift:baseline;text-anchor:start;white-space:normal;shape-padding:0;shape-margin:0;inline-size:0;clip-rule:nonzero;display:inline;overflow:visible;visibility:visible;isolation:auto;mix-blend-mode:normal;color-interpolation:sRGB;color-interpolation-filters:linearRGB;solid-color:#000000;solid-opacity:1;vector-effect:none;fill:#ffffff;fill-opacity:1;fill-rule:evenodd;stroke:none;stroke-width:12.7;stroke-linecap:round;stroke-linejoin:round;stroke-miterlimit:4;stroke-dasharray:none;stroke-dashoffset:0;stroke-opacity:1;color-rendering:auto;image-rendering:auto;shape-rendering:auto;text-rendering:auto;enable-background:accumulate;stop-color:#000000;stop-opacity:1;opacity:1" />
    <path
       id="path122"
       d="M 42.001953 -100.69727 C 29.010216 -100.44981 17.947266 -98.548828 17.947266 -98.548828 A 6.3499999 6.3499999 0 0 0 12.755859 -91.21875 A 6.3499999 6.3499999 0 0 0 20.085938 -86.029297 C 20.085938 -86.029297 30.35365 -87.771567 42.244141 -87.998047 C 54.134631 -88.224527 67.358539 -85.992528 71.652344 -82.158203 C 74.538772 -79.580641 75.982467 -75.497311 76.597656 -69.818359 C 77.178804 -64.453647 76.913338 -58.117015 77.070312 -51.921875 C 70.845939 -53.886115 62.492594 -56.255822 52.869141 -58.050781 C 43.964847 -59.711603 34.475838 -60.779543 25.675781 -59.990234 C 16.875724 -59.200925 8.2104118 -56.484425 2.828125 -49.332031 C -4.5464213 -39.532173 -3.6770823 -26.562659 0.46484375 -15.271484 C 4.6067698 -3.9803102 12.097618 6.3668383 21.636719 12.205078 C 30.814142 17.82195 42.116045 18.851898 52.796875 17.025391 C 63.477705 15.198884 73.746313 10.498223 81.042969 3.0625 C 88.47048 -4.5065562 90.555671 -14.604477 90.921875 -24.1875 C 91.157633 -30.356932 90.761087 -36.345612 90.351562 -42.072266 A 6.3499999 6.3499999 0 0 0 90.201172 -44.474609 C 90.042045 -46.759468 89.845474 -49.192585 89.773438 -51.275391 C 89.577536 -56.939606 89.998012 -64.028058 89.222656 -71.185547 C 88.4473 -78.343036 86.33088 -86.076838 80.111328 -91.630859 C 70.203283 -100.47864 54.99369 -100.94472 42.001953 -100.69727 z M 32.277344 -47.541016 C 37.99555 -47.488835 44.372209 -46.717007 50.541016 -45.566406 C 63.535047 -43.14277 73.377293 -39.833903 77.837891 -38.269531 C 78.151251 -33.571188 78.394113 -28.954198 78.230469 -24.671875 C 77.921198 -16.5787 76.259615 -10.194715 71.978516 -5.8320312 C 67.087752 -0.84805389 58.997167 3.0814494 50.65625 4.5078125 C 42.315333 5.9341756 33.931745 4.8396952 28.267578 1.3730469 C 22.165909 -2.3613733 15.618426 -10.840001 12.388672 -19.644531 C 9.1589179 -28.449062 9.3229657 -36.844684 12.974609 -41.697266 C 15.228568 -44.692497 19.899985 -46.72001 26.810547 -47.339844 C 28.538187 -47.494802 30.371275 -47.558409 32.277344 -47.541016 z "
       style="color:#000000;font-style:normal;font-variant:normal;font-weight:normal;font-stretch:normal;font-size:medium;line-height:normal;font-family:sans-serif;font-variant-ligatures:normal;font-variant-position:normal;font-variant-caps:normal;font-variant-numeric:normal;font-variant-alternates:normal;font-variant-east-asian:normal;font-feature-settings:normal;font-variation-settings:normal;text-indent:0;text-align:start;text-decoration:none;text-decoration-line:none;text-decoration-style:solid;text-decoration-color:#000000;letter-spacing:normal;word-spacing:normal;text-transform:none;writing-mode:lr-tb;direction:ltr;text-orientation:mixed;dominant-baseline:auto;baseline-shift:baseline;text-anchor:start;white-space:normal;shape-padding:0;shape-margin:0;inline-size:0;clip-rule:nonzero;display:inline;overflow:visible;visibility:visible;isolation:auto;mix-blend-mode:normal;color-interpolation:sRGB;color-interpolation-filters:linearRGB;solid-color:#000000;solid-opacity:1;vector-effect:none;fill:#ffffff;fill-opacity:1;fill-rule:evenodd;stroke:none;stroke-width:12.7;stroke-linecap:round;stroke-linejoin:round;stroke-miterlimit:4;stroke-dasharray:none;stroke-dashoffset:0;stroke-opacity:1;color-rendering:auto;image-rendering:auto;shape-rendering:auto;text-rendering:auto;enable-background:accumulate;stop-color:#000000;stop-opacity:1;opacity:1" />
    <path
       id="path126"
       d="M 130.47656 -140.99414 C 124.461 -141.25738 118.67302 -140.81322 113.5 -138.58789 C 108.32698 -136.36256 103.6785 -131.30854 103.06836 -124.9375 C 97.803448 -69.961937 98.76247 -61.016457 104.76562 1.1308594 C 105.52038 8.9443066 111.58472 14.678804 118.30469 16.992188 C 125.02465 19.305571 132.77662 19.44892 140.88672 18.529297 C 157.10692 16.690051 174.61322 10.588767 185.38672 1.8515625 C 206.07857 -14.929319 209.07534 -46.271798 205.20508 -70.285156 C 201.28801 -94.588843 187.22867 -120.61087 164.3125 -132.34766 C 155.4509 -136.88623 142.50769 -140.46766 130.47656 -140.99414 z M 129.92188 -128.30664 C 139.64873 -127.88099 151.93268 -124.4185 158.52344 -121.04297 C 176.30704 -111.93489 189.30899 -89.106602 192.66797 -68.265625 C 196.0621 -47.206447 192.15391 -19.98971 177.38672 -8.0136719 C 169.93572 -1.9709862 153.31677 4.3383468 139.45508 5.9101562 C 132.52423 6.696061 126.24553 6.2946374 122.43945 4.984375 C 118.63338 3.6741126 117.67647 2.7075042 117.40625 -0.08984375 C 111.40067 -62.262308 110.46882 -69.009356 115.70898 -123.72656 C 115.88643 -125.57941 116.20374 -125.92371 118.51953 -126.91992 C 120.83532 -127.91613 125.05845 -128.51946 129.92188 -128.30664 z "
       style="color:#000000;font-style:normal;font-variant:normal;font-weight:normal;font-stretch:normal;font-size:medium;line-height:normal;font-family:sans-serif;font-variant-ligatures:normal;font-variant-position:normal;font-variant-caps:normal;font-variant-numeric:normal;font-variant-alternates:normal;font-variant-east-asian:normal;font-feature-settings:normal;font-variation-settings:normal;text-indent:0;text-align:start;text-decoration:none;text-decoration-line:none;text-decoration-style:solid;text-decoration-color:#000000;letter-spacing:normal;word-spacing:normal;text-transform:none;writing-mode:lr-tb;direction:ltr;text-orientation:mixed;dominant-baseline:auto;baseline-shift:baseline;text-anchor:start;white-space:normal;shape-padding:0;shape-margin:0;inline-size:0;clip-rule:nonzero;display:inline;overflow:visible;visibility:visible;isolation:auto;mix-blend-mode:normal;color-interpolation:sRGB;color-interpolation-filters:linearRGB;solid-color:#000000;solid-opacity:1;vector-effect:none;fill:#ffffff;fill-opacity:1;fill-rule:evenodd;stroke:none;stroke-width:12.7;stroke-linecap:round;stroke-linejoin:round;stroke-miterlimit:4;stroke-dasharray:none;stroke-dashoffset:0;stroke-opacity:1;color-rendering:auto;image-rendering:auto;shape-rendering:auto;text-rendering:auto;enable-background:accumulate;stop-color:#000000;stop-opacity:1;opacity:1" />
    <path
       id="path130"
       d="M 232.83203 -139.72461 C 230.06243 -139.63662 227.36233 -139.22206 224.75586 -138.31641 C 219.54292 -136.50511 214.73098 -131.40679 214.12695 -125.09961 C 208.88948 -70.410567 205.63292 -57.102301 213.42578 5.1796875 C 213.88246 8.8295878 215.87265 12.111509 218.41406 14.332031 C 220.95548 16.552554 223.9587 17.93639 227.18945 18.914062 C 233.65097 20.869407 241.254 21.238345 249.30664 20.658203 C 265.41192 19.49792 283.05733 14.747483 294.0625 5.6914062 C 314.84248 -11.408317 317.05056 -43.17129 313.03516 -67.255859 C 309.04506 -91.188335 295.01113 -116.01285 273.18359 -128.35352 C 265.10538 -132.92071 252.85372 -137.55708 241.32227 -139.16992 C 238.4394 -139.57313 235.60163 -139.8126 232.83203 -139.72461 z M 233.24805 -126.95898 C 235.07989 -127.02216 237.24466 -126.91821 239.56445 -126.59375 C 248.84363 -125.29592 260.60821 -120.87306 266.93359 -117.29688 C 284.26446 -107.4985 297.10023 -85.606585 300.50781 -65.167969 C 304.06385 -43.838698 300.76347 -16.268477 285.99219 -4.1132812 C 278.87883 1.7402525 262.39763 6.9814001 248.39453 7.9902344 C 241.39298 8.4946515 234.94826 7.9928026 230.86719 6.7578125 C 228.82665 6.1403174 227.43483 5.3491201 226.77148 4.7695312 C 226.10814 4.1899424 226.08314 4.0475324 226.02734 3.6015625 C 218.31354 -58.048586 221.50192 -68.88494 226.76953 -123.88867 C 226.95309 -125.80539 226.93766 -125.63019 228.92383 -126.32031 C 229.91691 -126.66537 231.41621 -126.89581 233.24805 -126.95898 z "
       style="color:#000000;font-style:normal;font-variant:normal;font-weight:normal;font-stretch:normal;font-size:medium;line-height:normal;font-family:sans-serif;font-variant-ligatures:normal;font-variant-position:normal;font-variant-caps:normal;font-variant-numeric:normal;font-variant-alternates:normal;font-variant-east-asian:normal;font-feature-settings:normal;font-variation-settings:normal;text-indent:0;text-align:start;text-decoration:none;text-decoration-line:none;text-decoration-style:solid;text-decoration-color:#000000;letter-spacing:normal;word-spacing:normal;text-transform:none;writing-mode:lr-tb;direction:ltr;text-orientation:mixed;dominant-baseline:auto;baseline-shift:baseline;text-anchor:start;white-space:normal;shape-padding:0;shape-margin:0;inline-size:0;clip-rule:nonzero;display:inline;overflow:visible;visibility:visible;isolation:auto;mix-blend-mode:normal;color-interpolation:sRGB;color-interpolation-filters:linearRGB;solid-color:#000000;solid-opacity:1;vector-effect:none;fill:#ffffff;fill-opacity:1;fill-rule:evenodd;stroke:none;stroke-width:12.7;stroke-linecap:round;stroke-linejoin:round;stroke-miterlimit:4;stroke-dasharray:none;stroke-dashoffset:0;stroke-opacity:1;color-rendering:auto;image-rendering:auto;shape-rendering:auto;text-rendering:auto;enable-background:accumulate;stop-color:#000000;stop-opacity:1;opacity:1" />
    <g
       inkscape:transform-center-y="169.64204"
       inkscape:transform-center-x="-97.055652"
       transform="matrix(-0.22543727,-0.07265637,-0.07153254,0.22897906,-266.98853,-105.16264)"
       id="layer1-6">
      <path
         id="path1309"
         style="fill:#d00000;fill-opacity:1;fill-rule:evenodd;stroke:#000000;stroke-width:0.833495px;stroke-linecap:butt;stroke-linejoin:miter;stroke-opacity:1"
         d="m 234.10295,28.783327 c -28.10056,7.733968 -56.90414,23.114414 -77.16658,38.006479 -20.26243,14.892057 -73.190777,52.416304 -85.274538,64.306944 -11.715979,11.52873 -25.555008,15.55018 -31.610801,29.75626 -2.335424,5.47857 15.83661,22.00519 19.397534,23.721 9.241286,4.45282 24.304529,-3.44276 31.177964,-3.91429 22.307191,-1.53031 45.167011,-4.49872 67.760351,10.79277 -4.18054,4.22051 2.45801,-0.32326 -6.08769,36.69347 -3.01352,13.05342 -9.59873,46.91908 -1.50714,53.3804 8.03941,6.41966 12.94944,-18.60581 20.93693,-14.77435 -0.004,0.006 -0.002,0.0211 -0.005,0.0264 -0.002,0.005 -0.004,0.0222 -0.005,0.0264 4.7e-4,0.004 -0.006,0.0233 -0.005,0.0264 0.003,0.003 0.0211,0.003 0.0249,0.005 0.0243,0.007 0.0777,0.004 0.12879,-0.002 0.015,0.007 0.0346,0.002 0.0497,0.01 0.0565,0.0271 0.1079,0.0591 0.16488,0.0866 l 0.0475,-0.12728 c 3.78138,-0.97727 33.26276,-13.96581 60.17617,-8.74298 15.17141,2.94415 39.36936,-5.30957 53.29004,-9.61521 22.07602,-6.82803 53.06775,-12.99841 72.72796,-13.35072 14.48306,-0.25953 27.58714,-8.45898 41.52062,-9.41484 8.22039,-0.56393 0.59821,-27.06599 0.4283,-29.86559 -0.81659,-13.45508 -17.56507,-34.13032 -26.19103,-52.50369 -8.62596,-18.37338 -23.08213,-41.697 -39.00385,-59.986157 -15.92034,-18.289939 -37.40028,-41.972174 -52.5239,-49.259355 -15.12361,-7.287181 -17.9532,-13.675443 -48.45111,-5.281661 z" />
      <path
         id="path5882"
         style="opacity:0.101124;fill:#0e0000;fill-opacity:1;fill-rule:evenodd;stroke:none;stroke-width:1px;stroke-linecap:butt;stroke-linejoin:miter;stroke-opacity:1"
         d="m 166.95567,93.343683 c -18.23272,4.41659 -33.84758,62.691407 -56.31899,72.821827 -14.697321,6.62576 -54.749039,16.69269 -51.188115,18.4085 9.241286,4.45282 24.304529,-3.44276 31.177964,-3.91429 22.307191,-1.53031 45.167011,-4.49872 67.760351,10.79277 -4.18054,4.22051 2.45801,-0.32326 -6.08769,36.69347 -3.01352,13.05342 -9.59873,46.91908 -1.50714,53.3804 8.03941,6.41966 12.94944,-18.60581 20.93693,-14.77435 -0.004,0.006 -0.002,0.0211 -0.005,0.0264 -0.002,0.005 -0.004,0.0222 -0.005,0.0264 4.7e-4,0.004 -0.006,0.0233 -0.005,0.0264 0.003,0.003 0.0211,0.003 0.0249,0.005 0.0243,0.007 0.0777,0.004 0.12879,-0.002 0.015,0.007 0.0346,0.002 0.0497,0.01 0.0565,0.0271 0.1079,0.0591 0.16488,0.0866 l 0.0475,-0.12728 c 3.78138,-0.97727 33.26276,-13.96581 60.17617,-8.74298 15.17141,2.94415 39.36936,-5.30957 53.29004,-9.61521 22.07602,-6.82803 53.06775,-12.99841 72.72796,-13.35072 14.48306,-0.25953 27.58714,-8.45898 41.52062,-9.41484 8.22039,-0.56393 -51.08531,4.52064 -27.44964,-12.57577 10.48531,-7.58433 -104.98388,15.80767 -149.31404,-34.77677 -43.89537,-50.0883 -37.45534,-89.505577 -56.12656,-84.982777 z" />
      <path
         id="path5878"
         style="opacity:0.269663;fill:#000000;fill-opacity:1;fill-rule:evenodd;stroke:#000000;stroke-width:0.830161;stroke-linecap:butt;stroke-linejoin:miter;stroke-miterlimit:4;stroke-dasharray:none;stroke-opacity:1"
         d="m 41.923132,154.63221 c 3.550897,2.3529 27.397959,32.51694 30.215216,30.40575 0.340584,-3.33088 -2.440653,-4.64208 -4.39708,-5.02241 2.619616,-3.32925 3.113447,-6.81056 -1.432527,-7.10965 -5.040198,-0.88997 -10.542525,-1.51433 -5.132485,-6.93595 2.497843,-3.03871 -0.167946,-8.43506 -1.701721,-11.17993 -4.029518,-2.17638 -7.065984,-6.11435 -8.717627,-8.79126" />
      <path
         id="path5003"
         style="opacity:0.294045;fill:#000000;fill-opacity:1;fill-rule:evenodd;stroke:#000000;stroke-width:0.601426px;stroke-linecap:butt;stroke-linejoin:miter;stroke-opacity:1"
         d="m 365.59735,219.58638 c -7.45124,-2.6426 -16.80117,-5.69478 -23.38958,-5.28735 -4.52499,-3.82248 -7.99822,0.88787 -11.91885,2.14156 -0.65797,-7.35971 -11.51071,3.11231 -16.29132,3.17249 -3.39452,1.94833 -1.05481,-5.80054 -7.13354,-2.85309 -7.55754,0.71399 -12.23241,1.23324 -17.83876,3.66049 -1.34666,8.01279 -13.44905,12.52661 -15.26046,3.7443 -6.59856,2.87141 -18.86884,8.44118 -18.94833,-0.64164 -10.56431,8.19396 -10.90033,15.59836 -21.21381,19.55298 0.9126,-7.09218 -22.37063,-10.90803 -25.54443,-3.46471 -6.38963,2.57308 1.32915,-9.32097 -7.90455,-6.05233 -10.40062,-3.02386 -4.34704,17.93464 -25.55362,9.36597 -11.8077,-0.37983 -5.2687,16.71929 -13.06117,23.88224 -2.0761,7.53231 -11.08359,-2.62404 -14.72934,-2.06009 0.84794,11.92658 3.40768,7.88228 0.71924,15.9966 -1.60415,10.16538 -3.75129,15.25548 7.43178,17.37239 3.62121,-4.90361 -0.18204,-2.829 0.62793,6.21747 6.45765,-1.87978 14.94635,-12.63999 14.07505,-1.58144 4.38202,-6.67329 18.25435,-10.15139 18.07994,-17.33913 7.02184,0.73709 14.90236,8.57944 20.82979,-0.95299 5.95076,-7.0412 14.50445,-10.30685 14.59427,-4.86854 7.23377,6.7565 7.95724,5.38728 15.478,3.66781 -1.93719,-8.71166 17.59935,-0.59858 7.28271,-9.27171 4.09757,-4.10343 15.18748,-6.50139 21.59622,-5.07542 5.66947,8.25419 22.94407,8.93721 25.63186,-1.74704 0.56398,-8.40429 13.68224,-11.27875 18.58724,-5.46823 8.52969,-7.4786 21.98421,3.38849 29.32409,-2.3442 -6.59758,-8.56295 9.32443,-14.15812 12.29788,-7.59298 5.84169,-3.13663 11.27804,-14.42284 17.66836,-6.34283 7.34987,-2.39523 16.32468,-5.72557 22.54222,-8.22182 4.66667,7.69315 16.74733,-0.2211 11.51054,-9.53228 -2.83483,-6.65069 9.30974,3.27444 6.00348,-5.16367 -3.76088,-9.07689 -9.04264,-21.69181 -15.51378,-21.2748 -8.8124,-2.20185 -14.03766,3.74492 -14.40344,12.16045 -0.11143,-6.14114 -10.52227,-0.15499 -15.9832,2.07193 l -2.99388,0.71227 -3.57688,-2.52294" />
      <path
         id="path1307"
         style="fill:#ffffff;fill-opacity:1;fill-rule:evenodd;stroke:#000000;stroke-width:0.601426px;stroke-linecap:butt;stroke-linejoin:miter;stroke-opacity:1"
         d="m 370.52395,221.8307 c -7.45124,-2.6426 -14.35623,-3.01411 -20.94463,-2.60667 -4.52499,-3.82249 -9.89492,-2.56891 -13.81555,-1.31521 -0.65796,-7.35972 -9.61402,6.56907 -14.39462,6.62925 -3.39454,1.94834 -1.05481,-5.80052 -7.13355,-2.85309 -7.55754,0.71399 -16.31902,-3.97224 -21.92537,-1.54499 -1.34666,8.01279 -13.44905,12.52661 -15.26045,3.7443 -6.59857,2.87142 -14.78225,13.64667 -14.86172,4.56385 -12.38454,-0.5429 -17.69005,11.63327 -28.00354,15.58789 0.91261,-7.09217 -15.5809,-6.94295 -18.75471,0.50038 -6.38962,2.57308 -1.69916,-13.4386 -10.93286,-10.16996 -10.40061,-3.02386 -10.11666,17.69747 -22.52531,13.48359 -11.80769,-0.37983 -10.15859,11.35793 -17.95107,18.52087 -2.07609,7.53232 -6.19368,2.73734 -9.83944,3.30129 5.99914,8.51379 -18.39263,6.74041 -11.15151,19.87036 -1.60415,10.16538 0.84851,17.47186 12.03157,19.58876 3.62121,-4.9036 7.08893,-8.91913 7.8989,0.12733 6.45764,-1.87977 14.94635,-12.63998 14.07504,-1.58143 4.38203,-6.67329 18.25435,-10.15139 18.07994,-17.33913 7.02184,0.73709 14.90236,8.57943 20.82979,-0.953 5.95076,-7.04119 6.93352,-1.29602 7.02333,4.14228 7.23377,6.75651 15.52819,-3.62354 23.04894,-5.343 -1.93719,-8.71165 17.59935,-0.59858 7.28272,-9.27172 4.09756,-4.10342 15.18748,-6.50139 21.59622,-5.07542 5.62317,5.3341 22.94406,8.93722 25.63186,-1.74704 0.56398,-8.40429 13.68223,-11.27874 18.58724,-5.46823 8.52968,-7.47859 21.9842,3.3885 29.32408,-2.34419 -6.59758,-8.56296 9.32444,-14.15812 12.29788,-7.59298 5.84169,-3.13663 11.27804,-14.42284 17.66837,-6.34283 7.34985,-2.39523 16.32467,-5.72558 22.54222,-8.22183 4.66666,7.69315 16.74733,-0.2211 11.51053,-9.53227 -2.83483,-6.65069 9.30974,3.27444 6.00349,-5.16367 0.0738,-9.65646 -3.56311,-24.59965 -15.51378,-21.2748 -8.81241,-2.20185 -14.03766,3.74491 -14.40345,12.16044 -0.11143,-6.14113 -14.02552,-3.92353 -19.48644,-1.69661 l -1.78895,0.9461 -1.27857,1.01177" />
      <path
         id="path3126"
         style="fill:none;fill-opacity:0.75;fill-rule:evenodd;stroke:#000000;stroke-width:0.833495px;stroke-linecap:butt;stroke-linejoin:miter;stroke-opacity:1"
         d="m 155.67981,210.88831 c 3.14012,-40.84748 23.78547,-59.45023 20.15126,-92.12062 -2.14808,-19.310467 -19.537,-4.67273 -13.86936,13.44173" />
      <path
         id="path3249"
         style="opacity:0.11236;fill:#000000;fill-opacity:1;fill-rule:evenodd;stroke:none;stroke-width:0.721572px;stroke-linecap:butt;stroke-linejoin:miter;stroke-opacity:1"
         d="m 163.97802,266.61875 c -2.07609,7.53231 -6.19368,2.73733 -9.83944,3.30128 5.99914,8.51379 -18.39263,6.74042 -11.15152,19.87037 -1.60414,10.16538 0.84852,17.47185 12.03159,19.58875 3.6212,-4.9036 7.08892,-8.91913 7.89889,0.12734 6.45764,-1.87978 14.94635,-12.63999 14.07505,-1.58144 4.38202,-6.67328 18.25434,-10.15139 18.07993,-17.33912 7.02184,0.73708 14.56587,7.34967 20.4933,-2.18275 5.95076,-7.0412 7.27,-0.0663 7.35982,5.37202 7.23377,6.75652 15.52819,-3.62353 23.04895,-5.34299 -1.9372,-8.71166 8.86645,-1.54524 7.2827,-9.27172 -1.03721,-5.06015 33.64493,-3.56205 28.65668,-8.51045 -14.90587,-14.78677 -38.19112,7.49212 -41.55999,6.0701 -3.36887,-1.42201 -7.09125,-0.55957 -2.38487,-2.71925 4.70639,-2.15967 -6.74248,1.39249 -16.27743,-1.99436 -9.53496,-3.38685 -16.51439,0.89493 -17.1513,9.34281 -7.18176,-4.46668 -7.69633,0.60685 -18.88509,3.71804 7.12945,-10.42281 -12.5996,-2.76884 -12.5996,-2.76884 0,0 3.43729,-11.42797 -2.73938,-9.91964 3.32068,-5.96418 -0.36489,-7.80159 -0.36489,-7.80159 0,0 1.81907,-5.12151 -5.9734,2.04144 z" />
      <path
         id="path2251"
         style="fill:#ffffff;fill-opacity:1;fill-rule:evenodd;stroke:#000000;stroke-width:0.813602;stroke-linecap:butt;stroke-linejoin:miter;stroke-miterlimit:4;stroke-dasharray:none;stroke-opacity:1"
         d="m 46.944746,146.2449 c -1.301678,-2.31828 -5.35751,-2.9566 -5.879409,-4.92258 0.90649,-2.28341 -2.659108,-0.62717 -3.361697,-1.88241 -4.194454,3.43361 -9.9845,4.91989 -13.092707,9.64254 1.652786,-0.36247 1.648832,-2.77858 -0.157056,-0.99615 -3.401098,1.68966 -6.688157,4.65771 -5.409253,8.89282 0.309772,2.17325 -2.425553,4.04333 0.913564,4.55805 -0.435409,3.47934 -5.654943,3.33284 -5.658053,6.4037 1.15534,3.3495 0.647111,6.84015 -2.100735,9.18954 -2.7180283,2.54178 -1.598648,6.28312 -1.499585,9.37085 -1.3669853,2.06531 -2.1364273,3.98573 -0.334716,5.95301 0.381454,3.5482 3.326995,5.89755 3.348942,9.5893 1.240053,1.93493 3.726708,1.8152 4.99685,4.00177 3.710475,0.3154 3.982719,5.49648 7.517208,6.2151 3.036183,0.99028 6.628635,0.30362 9.364415,1.02979 2.243733,1.81902 4.819206,3.08691 7.64389,3.59772 3.550896,2.25998 4.757769,-3.36478 6.906731,-5.17595 0.111428,-2.83195 2.146008,-3.05232 3.508535,-0.6677 3.101,2.10235 6.314017,-1.51811 8.537176,-3.43384 2.173489,-2.36905 4.611889,-4.42 7.032089,-6.49716 3.435924,-3.87856 4.655818,-9.42971 4.463567,-14.53502 0.340584,-3.19933 -2.634125,-3.37634 -4.590549,-3.74166 0.884588,-2.68233 3.113445,-6.54159 -1.432528,-6.82885 -2.606958,-0.6809 -8.517294,-3.59356 -5.132485,-6.66202 2.497843,-2.91871 -0.939756,-6.84771 -2.473531,-9.48419 -2.656218,-2.11406 -4.199508,-5.05895 -5.85115,-7.63014 -3.197679,-0.50952 -6.194337,-2.45275 -7.009506,-5.8451 -0.853644,-2.69404 -0.236398,-0.69903 0.03297,0.61246" />
      <path
         id="path4128"
         style="opacity:0.0955056;fill:#000000;fill-opacity:1;fill-rule:evenodd;stroke:none;stroke-width:0.996;stroke-linecap:butt;stroke-linejoin:miter;stroke-miterlimit:4;stroke-dasharray:none;stroke-opacity:1"
         d="m 20.404837,181.84614 c -1.601293,-1.9684 4.721412,-1.04116 4.199512,-3.00714 0.90649,-2.28339 -0.178267,-2.37846 -0.880857,-3.63371 -4.194453,3.43361 -3.206637,-4.70088 -6.314844,0.0218 1.652786,-0.36246 1.381011,-6.33357 -0.424877,-4.55114 -3.401098,1.68965 -2.680526,-5.80591 -2.683636,-2.73505 1.15534,3.3495 0.647111,6.84015 -2.100735,9.18954 -2.7180283,2.54178 -1.598648,6.28312 -1.499585,9.37085 -1.3669853,2.06531 -2.1364273,3.98573 -0.334716,5.95301 0.381454,3.5482 3.326995,5.89755 3.348942,9.5893 1.240053,1.93493 3.726708,1.8152 4.99685,4.00177 3.710475,0.3154 3.982719,5.49648 7.517208,6.2151 3.036183,0.99028 6.628635,0.30362 9.364415,1.02979 2.243733,1.81902 4.819206,3.08691 7.64389,3.59772 3.550896,2.25998 4.757769,-3.36478 6.906731,-5.17595 0.111428,-2.83195 2.146008,-3.05232 3.508535,-0.6677 3.101,2.10235 6.314017,-1.51811 8.537176,-3.43384 2.173489,-2.36905 -8.345955,0.35931 -5.925755,-1.71784 3.43592,-3.87857 -7.75248,5.41378 -7.944735,0.30847 0.340581,-3.19932 -12.370379,4.07056 -9.678506,-1.55391 0.884591,-2.68233 1.535909,-0.7479 -3.010064,-1.03517 -2.606958,-0.6809 -9.803527,-5.4936 -6.418718,-8.56206 2.497844,-2.91871 -1.342064,0.45638 -2.875839,-2.18009 -2.656219,-2.11406 -0.95965,-0.95001 -2.611292,-3.52118 -3.197679,-0.50952 -1.791784,-1.81661 -2.606953,-5.20895 -1.383361,3.98006 -0.981514,-3.60508 -0.712147,-2.29359 z" />
      <path
         id="path5880"
         style="fill:#000000;fill-opacity:0.223464;fill-rule:evenodd;stroke:none;stroke-width:1px;stroke-linecap:butt;stroke-linejoin:miter;stroke-opacity:1"
         d="m 157.67035,192.3615 c 0,0 13.14456,-33.51164 16.30292,-46.8815 2.955,-12.50888 2.57264,-31.60315 -1.8531,-35.13721 -4.42575,-3.53406 -10.24707,2.57829 -10.86062,9.81603 -0.61354,7.23773 -1.12742,9.06164 1.8435,22.86746 1.34679,6.25851 0.67415,21.09312 -1.15695,28.09458 -1.8311,7.00146 -5.82667,22.94607 -4.27575,21.24064 z" />
    </g>
  </g>
</svg>
