<?xml version="1.0" encoding="UTF-8" standalone="no"?>
<svg
   xmlns:dc="http://purl.org/dc/elements/1.1/"
   xmlns:cc="http://creativecommons.org/ns#"
   xmlns:rdf="http://www.w3.org/1999/02/22-rdf-syntax-ns#"
   xmlns:svg="http://www.w3.org/2000/svg"
   xmlns="http://www.w3.org/2000/svg"
   width="638.15771mm"
   height="136.38199mm"
   viewBox="0 0 638.15771 136.38199"
   version="1.1"
   id="svg82">
  <defs
     id="defs76" />
  <metadata
     id="metadata79">
    <rdf:RDF>
      <cc:Work
         rdf:about="">
        <dc:format>image/svg+xml</dc:format>
        <dc:type
           rdf:resource="http://purl.org/dc/dcmitype/StillImage" />
        <dc:title></dc:title>
      </cc:Work>
    </rdf:RDF>
  </metadata>
  <g
     id="layer1"
     transform="translate(88.513381,-66.368533)">
    <path
       style="color:#000000;font-style:normal;font-variant:normal;font-weight:normal;font-stretch:normal;font-size:medium;line-height:normal;font-family:sans-serif;font-variant-ligatures:normal;font-variant-position:normal;font-variant-caps:normal;font-variant-numeric:normal;font-variant-alternates:normal;font-variant-east-asian:normal;font-feature-settings:normal;font-variation-settings:normal;text-indent:0;text-align:start;text-decoration:none;text-decoration-line:none;text-decoration-style:solid;text-decoration-color:#000000;letter-spacing:normal;word-spacing:normal;text-transform:none;writing-mode:lr-tb;direction:ltr;text-orientation:mixed;dominant-baseline:auto;baseline-shift:baseline;text-anchor:start;white-space:normal;shape-padding:0;shape-margin:0;inline-size:0;clip-rule:nonzero;display:inline;overflow:visible;visibility:visible;isolation:auto;mix-blend-mode:normal;color-interpolation:sRGB;color-interpolation-filters:linearRGB;solid-color:#000000;solid-opacity:1;vector-effect:none;fill:#000000;fill-opacity:1;fill-rule:evenodd;stroke:none;stroke-width:11.5661;stroke-linecap:round;stroke-linejoin:round;stroke-miterlimit:4;stroke-dasharray:none;stroke-dashoffset:0;stroke-opacity:1;color-rendering:auto;image-rendering:auto;shape-rendering:auto;text-rendering:auto;enable-background:accumulate;stop-color:#000000"
       d="m -12.600967,99.051762 c -3.522124,-0.07769 -6.836332,1.569478 -9.112908,3.664908 -2.601806,2.39477 -4.445545,5.37288 -6.093223,8.67535 -2.897368,5.80719 -5.061451,12.73751 -6.859031,19.32729 -1.482685,-4.17024 -3.332335,-8.40476 -5.541521,-12.4128 -2.871235,-5.20918 -6.325176,-10.0064 -10.80478,-13.50203 -4.479604,-3.49561 -10.495976,-5.592051 -16.633906,-4.14275 -9.477512,2.23788 -14.968547,10.64298 -17.693148,19.78999 -2.724601,9.14703 -3.338493,19.84399 -3.13931,30.23235 0.398332,20.77672 4.310104,40.43383 4.310104,40.43383 a 5.7830328,5.7830328 0 0 0 6.794531,4.55194 5.7830328,5.7830328 0 0 0 4.551947,-6.79454 c 0,0 -3.719755,-18.95635 -4.092779,-38.41307 -0.18652,-9.72837 0.528788,-19.55323 2.660166,-26.70868 2.131378,-7.15544 5.023233,-10.83339 9.266393,-11.8353 2.384199,-0.56296 4.262195,-0.023 6.860633,2.00464 2.598455,2.02767 5.406097,5.64069 7.790576,9.96674 4.768943,8.65209 7.886147,20.25973 8.271322,25.91062 0.107425,1.57608 0.227182,2.80871 0.42724,3.94415 0.100029,0.5677 0.210277,1.10624 0.440133,1.77988 0.229873,0.67364 0.385026,1.56435 1.846959,2.88297 0.730975,0.65931 1.999289,1.39263 3.474346,1.52936 1.475042,0.13671 2.839868,-0.3464 3.670046,-0.84869 1.660356,-1.00458 1.975631,-1.82804 2.317403,-2.41703 0.683544,-1.17798 0.910347,-1.97215 1.225935,-2.9639 1.262387,-3.967 2.588582,-10.28017 4.441352,-17.33781 1.852754,-7.05765 4.198817,-14.67039 6.764864,-19.81355 1.283024,-2.57157 2.654338,-4.4802 3.576554,-5.32903 0.922217,-0.84883 0.798448,-0.64004 0.890916,-0.62457 4.5515008,0.76173 7.5765512,4.35948 9.9809244,11.72148 2.40437316,7.362 3.38164762,17.64149 3.40565189,27.87464 0.0480086,20.4663 -3.43822439,40.64213 -3.43822439,40.64213 a 5.7830328,5.7830328 0 0 0 4.705102,6.68942 5.7830328,5.7830328 0 0 0 6.6894335,-4.70511 c 0,0 3.6608666,-20.86539 3.6097546,-42.65353 -0.02556,-10.89406 -0.909356,-22.0453 -3.9770168,-31.43829 -3.067677,-9.39296 -9.1253225,-17.87438 -19.0667572,-19.538155 -0.509241,-0.08522 -1.016517,-0.131743 -1.519682,-0.142853 z"
       id="path18" />
    <path
       style="color:#000000;font-style:normal;font-variant:normal;font-weight:normal;font-stretch:normal;font-size:medium;line-height:normal;font-family:sans-serif;font-variant-ligatures:normal;font-variant-position:normal;font-variant-caps:normal;font-variant-numeric:normal;font-variant-alternates:normal;font-variant-east-asian:normal;font-feature-settings:normal;font-variation-settings:normal;text-indent:0;text-align:start;text-decoration:none;text-decoration-line:none;text-decoration-style:solid;text-decoration-color:#000000;letter-spacing:normal;word-spacing:normal;text-transform:none;writing-mode:lr-tb;direction:ltr;text-orientation:mixed;dominant-baseline:auto;baseline-shift:baseline;text-anchor:start;white-space:normal;shape-padding:0;shape-margin:0;inline-size:0;clip-rule:nonzero;display:inline;overflow:visible;visibility:visible;isolation:auto;mix-blend-mode:normal;color-interpolation:sRGB;color-interpolation-filters:linearRGB;solid-color:#000000;solid-opacity:1;vector-effect:none;fill:#000000;fill-opacity:1;fill-rule:evenodd;stroke:none;stroke-width:11.5661;stroke-linecap:round;stroke-linejoin:round;stroke-miterlimit:4;stroke-dasharray:none;stroke-dashoffset:0;stroke-opacity:1;color-rendering:auto;image-rendering:auto;shape-rendering:auto;text-rendering:auto;enable-background:accumulate;stop-color:#000000"
       d="m 60.454195,96.411275 c -7.668607,0.09836 -15.685919,1.999916 -23.55389,6.488865 -7.011477,4.00028 -11.220496,10.85254 -13.751593,17.9798 -2.531097,7.12723 -3.49145,14.75437 -3.611686,21.4883 -0.310949,17.41363 3.410704,39.81847 19.885759,50.89456 9.699857,6.52115 22.949226,5.31333 34.205811,3.7497 11.256602,-1.56363 20.643842,-4.33398 20.643842,-4.33398 a 5.7830328,5.7830328 0 0 0 3.916395,-7.17985 5.7830328,5.7830328 0 0 0 -7.179854,-3.91641 c 0,0 -8.691413,2.54608 -18.971962,3.97412 -10.280532,1.42806 -22.027059,0.88724 -26.16116,-1.89209 -7.85757,-5.28261 -12.27079,-16.65925 -13.964726,-28.40183 5.231545,1.62125 12.753006,3.73785 21.267441,5.31033 7.599317,1.40347 15.788341,2.35171 23.514218,1.8792 7.725876,-0.47251 15.281049,-2.29893 20.799242,-7.59065 5.876408,-5.63525 8.548018,-13.87106 8.671488,-22.09774 0.12347,-8.22666 -2.42443,-16.88524 -9.06358,-22.65297 C 88.463849,102.60808 75.094244,96.223484 60.454195,96.411275 Z m 2.182292,11.607985 c 10.787495,0.42035 20.549558,5.32508 26.87797,10.82282 3.269617,2.8405 5.16891,8.10995 5.084284,13.74805 -0.08461,5.63809 -2.276444,11.20393 -5.112019,13.92314 -2.491079,2.38883 -7.253716,4.01226 -13.499764,4.39426 -6.246047,0.38201 -13.682717,-0.41086 -20.707996,-1.70831 -10.54377,-1.94727 -20.074937,-4.94997 -24.177488,-6.32797 0.0017,-0.098 -0.002,-0.19892 0,-0.29665 0.10262,-5.74647 0.995186,-12.32937 2.9465,-17.82405 1.951313,-5.49467 4.854509,-9.67631 8.584417,-11.80434 6.690539,-3.81718 13.531939,-5.17916 20.004426,-4.92695 z"
       id="path22" />
    <path
       style="color:#000000;font-style:normal;font-variant:normal;font-weight:normal;font-stretch:normal;font-size:medium;line-height:normal;font-family:sans-serif;font-variant-ligatures:normal;font-variant-position:normal;font-variant-caps:normal;font-variant-numeric:normal;font-variant-alternates:normal;font-variant-east-asian:normal;font-feature-settings:normal;font-variation-settings:normal;text-indent:0;text-align:start;text-decoration:none;text-decoration-line:none;text-decoration-style:solid;text-decoration-color:#000000;letter-spacing:normal;word-spacing:normal;text-transform:none;writing-mode:lr-tb;direction:ltr;text-orientation:mixed;dominant-baseline:auto;baseline-shift:baseline;text-anchor:start;white-space:normal;shape-padding:0;shape-margin:0;inline-size:0;clip-rule:nonzero;display:inline;overflow:visible;visibility:visible;isolation:auto;mix-blend-mode:normal;color-interpolation:sRGB;color-interpolation-filters:linearRGB;solid-color:#000000;solid-opacity:1;vector-effect:none;fill:#000000;fill-opacity:1;fill-rule:evenodd;stroke:none;stroke-width:10.6937;stroke-linecap:round;stroke-linejoin:round;stroke-miterlimit:4;stroke-dasharray:none;stroke-dashoffset:0;stroke-opacity:1;color-rendering:auto;image-rendering:auto;shape-rendering:auto;text-rendering:auto;enable-background:accumulate;stop-color:#000000"
       d="m 152.12629,101.05704 c -10.77317,0.0403 -22.35298,4.09215 -29.77512,12.49697 l -0.15477,-6.54949 a 5.3468367,5.3468367 0 0 0 -5.47155,-5.21908 5.3468367,5.3468367 0 0 0 -5.21908,5.47156 l 0.73937,31.29383 c -1.25557,8.34097 -1.38163,17.18331 -1.20466,25.36441 0.35594,16.45457 2.5673,30.28554 2.5673,30.28554 a 5.3473714,5.3473714 0 0 0 10.6255,-0.96796 l -1.2269,-51.9409 c 1.15477,-7.94814 3.10628,-14.93515 6.0713,-19.07224 4.75281,-6.6316 15.88253,-10.88367 24.84495,-10.42815 10.66745,0.54214 23.03624,6.9896 28.42408,15.65143 4.50742,7.24643 5.88317,23.4533 5.25422,37.3748 -0.62895,13.92151 -2.6866,25.57207 -2.6866,25.57207 a 5.3468367,5.3468367 0 0 0 4.33235,6.19736 5.3468367,5.3468367 0 0 0 6.19738,-4.33267 c 0,0 2.17512,-12.24971 2.83944,-26.95406 0.66432,-14.70435 0.39413,-31.8489 -6.85645,-43.50542 -7.78187,-12.51064 -22.72683,-19.95974 -36.96143,-20.68317 -0.77415,-0.0394 -1.55455,-0.0578 -2.33933,-0.0548 z"
       id="path26" />
    <path
       style="color:#000000;font-style:normal;font-variant:normal;font-weight:normal;font-stretch:normal;font-size:medium;line-height:normal;font-family:sans-serif;font-variant-ligatures:normal;font-variant-position:normal;font-variant-caps:normal;font-variant-numeric:normal;font-variant-alternates:normal;font-variant-east-asian:normal;font-feature-settings:normal;font-variation-settings:normal;text-indent:0;text-align:start;text-decoration:none;text-decoration-line:none;text-decoration-style:solid;text-decoration-color:#000000;letter-spacing:normal;word-spacing:normal;text-transform:none;writing-mode:lr-tb;direction:ltr;text-orientation:mixed;dominant-baseline:auto;baseline-shift:baseline;text-anchor:start;white-space:normal;shape-padding:0;shape-margin:0;inline-size:0;clip-rule:nonzero;display:inline;overflow:visible;visibility:visible;isolation:auto;mix-blend-mode:normal;color-interpolation:sRGB;color-interpolation-filters:linearRGB;solid-color:#000000;solid-opacity:1;vector-effect:none;fill:#000000;fill-opacity:1;fill-rule:evenodd;stroke:none;stroke-width:10.6937;stroke-linecap:round;stroke-linejoin:round;stroke-miterlimit:4;stroke-dasharray:none;stroke-dashoffset:0;stroke-opacity:1;color-rendering:auto;image-rendering:auto;shape-rendering:auto;text-rendering:auto;enable-background:accumulate;stop-color:#000000"
       d="m 235.1498,99.208796 c -4.23944,-0.09078 -8.38397,0.638788 -12.19966,2.687254 -6.58491,3.53512 -11.2452,9.92944 -13.91894,16.96764 -2.67374,7.03822 -3.44155,14.96762 -0.46013,21.98262 2.41367,5.67907 7.19846,9.27496 12.17613,11.30778 4.97767,2.03283 10.3292,2.87567 15.51697,3.65878 10.37554,1.56619 19.4136,3.18204 23.11923,7.9979 2.0376,2.64808 3.92793,6.60532 4.65932,10.24501 0.73138,3.63968 0.30194,6.66024 -0.97991,8.48156 -2.68084,3.80907 -7.82589,6.34448 -14.14014,7.28982 -6.31424,0.94533 -13.52321,0.20387 -18.93519,-1.61835 -1.64842,-0.55502 -6.16273,-4.72426 -9.2664,-8.96491 -3.10366,-4.24065 -5.26035,-8.17878 -5.26035,-8.17878 a 5.3468367,5.3468367 0 0 0 -7.25531,-2.13072 5.3468367,5.3468367 0 0 0 -2.13071,7.25498 c 0,0 2.44242,4.48643 6.0168,9.37022 3.57438,4.88382 7.81694,10.53928 14.48354,12.78395 7.19158,2.42141 15.73252,3.28687 23.93082,2.05944 8.1983,-1.22742 16.32835,-4.64456 21.30162,-11.71083 3.58213,-5.08968 3.82244,-11.25254 2.71917,-16.74292 -1.10327,-5.49037 -3.55208,-10.60993 -6.66814,-14.65957 -7.40584,-9.62468 -19.86892,-10.52169 -29.99825,-12.05071 -5.06467,-0.76451 -9.71645,-1.61501 -13.06995,-2.98454 -3.35349,-1.36953 -5.22778,-2.88541 -6.37761,-5.59085 -1.492,-3.51052 -1.30396,-8.95016 0.61522,-14.00213 1.91918,-5.05196 5.48885,-9.46915 8.98039,-11.34358 3.95418,-2.12282 14.87232,-0.58843 24.34774,2.90941 9.47541,3.49784 17.35393,7.9331 17.35393,7.9331 a 5.3468367,5.3468367 0 0 0 7.28498,-2.02656 5.3468367,5.3468367 0 0 0 -2.02689,-7.28499 c 0,0 -8.48665,-4.80612 -18.90875,-8.65342 -6.51382,-2.40458 -13.84378,-4.835281 -20.90953,-4.986604 z"
       id="path30" />
    <path
       style="color:#000000;font-style:normal;font-variant:normal;font-weight:normal;font-stretch:normal;font-size:medium;line-height:normal;font-family:sans-serif;font-variant-ligatures:normal;font-variant-position:normal;font-variant-caps:normal;font-variant-numeric:normal;font-variant-alternates:normal;font-variant-east-asian:normal;font-feature-settings:normal;font-variation-settings:normal;text-indent:0;text-align:start;text-decoration:none;text-decoration-line:none;text-decoration-style:solid;text-decoration-color:#000000;letter-spacing:normal;word-spacing:normal;text-transform:none;writing-mode:lr-tb;direction:ltr;text-orientation:mixed;dominant-baseline:auto;baseline-shift:baseline;text-anchor:start;white-space:normal;shape-padding:0;shape-margin:0;inline-size:0;clip-rule:nonzero;display:inline;overflow:visible;visibility:visible;isolation:auto;mix-blend-mode:normal;color-interpolation:sRGB;color-interpolation-filters:linearRGB;solid-color:#000000;solid-opacity:1;vector-effect:none;fill:#000000;fill-opacity:1;fill-rule:evenodd;stroke:none;stroke-width:10.6937;stroke-linecap:round;stroke-linejoin:round;stroke-miterlimit:4;stroke-dasharray:none;stroke-dashoffset:0;stroke-opacity:1;color-rendering:auto;image-rendering:auto;shape-rendering:auto;text-rendering:auto;enable-background:accumulate;stop-color:#000000"
       d="m 324.21462,100.31897 c -1.41339,-0.005 -2.81016,0.0117 -4.17758,0.0377 -10.93932,0.20838 -20.25528,1.80924 -20.25528,1.80924 a 5.3468367,5.3468367 0 0 0 -4.37008,6.17093 5.3468367,5.3468367 0 0 0 6.17093,4.37008 c 0,0 8.64617,-1.46794 18.65822,-1.65864 10.01205,-0.19071 21.14661,1.68869 24.76208,4.91726 2.43043,2.17036 3.64604,5.60961 4.16404,10.39141 0.48924,4.5163 0.2588,9.84623 0.3908,15.06168 -5.22304,-1.63665 -12.46139,-3.67888 -20.36975,-5.15396 -7.49761,-1.39843 -15.48787,-2.29681 -22.89771,-1.6322 -7.40984,0.66462 -14.70693,2.95115 -19.23894,8.97362 -6.20952,8.25169 -5.47675,19.17332 -1.98916,28.68075 3.48759,9.50741 9.79516,18.21974 17.82728,23.13566 7.72759,4.72952 17.24345,5.59625 26.23694,4.05829 8.9935,-1.53797 17.63952,-5.49528 23.78347,-11.75632 6.25413,-6.3733 8.00974,-14.87631 8.31809,-22.94542 0.19551,-5.11635 -0.15269,-10.19469 -0.4927,-14.95495 a 5.3468367,5.3468367 0 0 0 -0.1609,-2.3016 c -0.13439,-1.92885 -0.25261,-3.79454 -0.31341,-5.5525 -0.16496,-4.76937 0.19048,-10.73774 -0.46239,-16.76449 -0.65286,-6.02678 -2.43587,-12.53966 -7.67287,-17.21625 -7.29994,-6.51878 -18.0173,-7.63318 -27.91108,-7.67031 z m -12.36604,44.79586 c 4.81485,0.0439 10.18437,0.69336 15.37864,1.66219 9.67836,1.8052 18.42651,4.56375 22.97736,6.10451 0.26509,3.96965 0.47584,7.8716 0.33759,11.48931 -0.26041,6.81464 -1.66008,12.19013 -5.26486,15.86361 -4.11813,4.19661 -10.93012,7.50464 -17.95336,8.70566 -7.02312,1.20101 -14.08266,0.28031 -18.85201,-2.63855 h -3.3e-4 c -5.13767,-3.14455 -10.65065,-10.28384 -13.37013,-17.69735 -2.71953,-7.4136 -2.58045,-14.48227 0.4943,-18.56824 1.89789,-2.52205 5.83106,-4.2306 11.6499,-4.7525 1.45471,-0.13049 2.99794,-0.18329 4.60289,-0.16864 z"
       id="path34" />
    <path
       style="color:#000000;font-style:normal;font-variant:normal;font-weight:normal;font-stretch:normal;font-size:medium;line-height:normal;font-family:sans-serif;font-variant-ligatures:normal;font-variant-position:normal;font-variant-caps:normal;font-variant-numeric:normal;font-variant-alternates:normal;font-variant-east-asian:normal;font-feature-settings:normal;font-variation-settings:normal;text-indent:0;text-align:start;text-decoration:none;text-decoration-line:none;text-decoration-style:solid;text-decoration-color:#000000;letter-spacing:normal;word-spacing:normal;text-transform:none;writing-mode:lr-tb;direction:ltr;text-orientation:mixed;dominant-baseline:auto;baseline-shift:baseline;text-anchor:start;white-space:normal;shape-padding:0;shape-margin:0;inline-size:0;clip-rule:nonzero;display:inline;overflow:visible;visibility:visible;isolation:auto;mix-blend-mode:normal;color-interpolation:sRGB;color-interpolation-filters:linearRGB;solid-color:#000000;solid-opacity:1;vector-effect:none;fill:#000000;fill-opacity:1;fill-rule:evenodd;stroke:none;stroke-width:10.6937;stroke-linecap:round;stroke-linejoin:round;stroke-miterlimit:4;stroke-dasharray:none;stroke-dashoffset:0;stroke-opacity:1;color-rendering:auto;image-rendering:auto;shape-rendering:auto;text-rendering:auto;enable-background:accumulate;stop-color:#000000"
       d="m 390.77705,66.385295 c -3.71179,0.09963 -7.26998,0.661537 -10.53682,2.06686 -4.3558,1.873786 -8.27091,6.128008 -8.78466,11.49255 -4.43316,46.290625 -3.62542,53.823345 1.42939,106.152745 0.63551,6.57909 5.74262,11.40867 11.40097,13.3566 5.65835,1.94791 12.185,2.0683 19.01388,1.29395 13.65775,-1.54869 28.3984,-6.68712 37.46991,-14.04403 17.42298,-14.12987 19.94728,-40.52094 16.68842,-60.74071 -3.29826,-20.46422 -15.13656,-42.37456 -34.4325,-52.25719 -7.46166,-3.821583 -18.36004,-6.837157 -28.4905,-7.280477 -1.26631,-0.0554 -2.52082,-0.07352 -3.75809,-0.0403 z m 0.33696,10.712229 c 0.93975,-0.03541 1.92981,-0.03351 2.95358,0.01123 8.19022,0.358396 18.53379,3.272869 24.08334,6.115146 14.97421,7.669218 25.92143,26.89228 28.74976,44.44084 2.85792,17.73228 -0.43221,40.64957 -12.86649,50.73365 -6.2739,5.08806 -20.26753,10.40024 -31.93937,11.72374 -5.83592,0.66175 -11.123,0.3236 -14.32779,-0.77967 -3.2048,-1.10328 -4.01036,-1.91761 -4.23788,-4.27303 -5.05685,-52.35057 -5.84075,-58.03246 -1.42843,-104.105547 0.14941,-1.560129 0.4155,-1.849699 2.36545,-2.688528 1.46246,-0.62913 3.82857,-1.071641 6.64783,-1.177894 z"
       id="path38" />
    <path
       style="color:#000000;font-style:normal;font-variant:normal;font-weight:normal;font-stretch:normal;font-size:medium;line-height:normal;font-family:sans-serif;font-variant-ligatures:normal;font-variant-position:normal;font-variant-caps:normal;font-variant-numeric:normal;font-variant-alternates:normal;font-variant-east-asian:normal;font-feature-settings:normal;font-variation-settings:normal;text-indent:0;text-align:start;text-decoration:none;text-decoration-line:none;text-decoration-style:solid;text-decoration-color:#000000;letter-spacing:normal;word-spacing:normal;text-transform:none;writing-mode:lr-tb;direction:ltr;text-orientation:mixed;dominant-baseline:auto;baseline-shift:baseline;text-anchor:start;white-space:normal;shape-padding:0;shape-margin:0;inline-size:0;clip-rule:nonzero;display:inline;overflow:visible;visibility:visible;isolation:auto;mix-blend-mode:normal;color-interpolation:sRGB;color-interpolation-filters:linearRGB;solid-color:#000000;solid-opacity:1;vector-effect:none;fill:#000000;fill-opacity:1;fill-rule:evenodd;stroke:none;stroke-width:10.6937;stroke-linecap:round;stroke-linejoin:round;stroke-miterlimit:4;stroke-dasharray:none;stroke-dashoffset:0;stroke-opacity:1;color-rendering:auto;image-rendering:auto;shape-rendering:auto;text-rendering:auto;enable-background:accumulate;stop-color:#000000"
       d="m 482.47915,67.487725 c -2.9498,-0.06884 -5.81688,0.239184 -8.56025,1.192405 -4.3894,1.525146 -8.43986,5.817404 -8.94846,11.128177 -4.41007,46.049363 -7.15279,57.254903 -0.59104,109.697683 0.38453,3.07331 2.06086,5.83831 4.20079,7.70804 2.13993,1.86972 4.66747,3.03384 7.38784,3.85707 5.44073,1.64644 11.8442,1.95723 18.62469,1.46874 13.561,-0.977 28.41808,-4.97604 37.68467,-12.60144 17.49722,-14.39835 19.35591,-41.14423 15.97484,-61.42397 -3.35972,-20.15165 -15.17555,-41.054174 -33.5548,-51.445285 -6.80205,-3.84567 -17.11826,-7.750343 -26.82798,-9.108384 -1.82058,-0.254637 -3.62042,-0.431714 -5.3903,-0.473036 z m -1.40844,10.755764 c 1.54244,-0.05319 3.36411,0.03473 5.31742,0.307945 7.81326,1.092789 17.72022,4.815449 23.04637,7.826681 14.59296,8.250438 25.40038,26.685175 28.26962,43.894935 2.99428,17.95971 0.21584,41.17293 -12.22192,51.40788 -5.98958,4.9288 -19.86696,9.34364 -31.65786,10.1931 -5.89546,0.42473 -11.32256,0.002 -14.75892,-1.03794 -1.71817,-0.51996 -2.89061,-1.18708 -3.44918,-1.6751 -0.55856,-0.48803 -0.57888,-0.60729 -0.62586,-0.98281 -6.49519,-51.91076 -3.81054,-61.03597 0.6249,-107.350302 0.15456,-1.613916 0.14102,-1.46545 1.81343,-2.046554 0.83619,-0.290545 2.09955,-0.484642 3.642,-0.537835 z"
       id="path42" />
  </g>
</svg>
