<?xml version="1.0" encoding="UTF-8" standalone="no"?>
<svg
   xmlns:dc="http://purl.org/dc/elements/1.1/"
   xmlns:cc="http://creativecommons.org/ns#"
   xmlns:rdf="http://www.w3.org/1999/02/22-rdf-syntax-ns#"
   xmlns:svg="http://www.w3.org/2000/svg"
   xmlns="http://www.w3.org/2000/svg"
   id="svg453"
   version="1.1"
   viewBox="0 0 115.63482 121.94688"
   height="121.94688mm"
   width="115.63482mm">
  <defs
     id="defs447" />
  <metadata
     id="metadata450">
    <rdf:RDF>
      <cc:Work
         rdf:about="">
        <dc:format>image/svg+xml</dc:format>
        <dc:type
           rdf:resource="http://purl.org/dc/dcmitype/StillImage" />
        <dc:title></dc:title>
      </cc:Work>
    </rdf:RDF>
  </metadata>
  <g
     transform="translate(88.055507,-10.086085)"
     id="layer1">
    <path
       id="path4208-2-3"
       d="m -34.519507,17.539858 c 0,0 2.985053,20.400434 2.840101,30.695795 -0.160264,11.380073 -2.109082,20.298278 -4.092763,33.778428 -1.554845,10.566268 -6.631263,28.598699 -0.167352,38.889059 3.671985,5.84573 11.520739,6.20168 17.513795,5.63801 5.932818,-0.55801 12.8668124,-2.60755 16.5671314,-8.77022 5.164471,-8.60113 5.725189,-21.892708 3.786759,-32.575128 C -0.34184663,72.68609 -10.138251,64.927395 -15.112286,53.873633 -20.492365,41.917588 -28.839342,16.287003 -28.839342,16.287003 Z"
       style="fill:none;fill-rule:evenodd;stroke:#000000;stroke-width:10.5833;stroke-linecap:butt;stroke-linejoin:miter;stroke-miterlimit:4;stroke-dasharray:none;stroke-opacity:1" />
    <path
       id="path4210-7-4"
       d="m -33.838076,22.529556 c 0,0 -1.227066,15.255294 -3.523832,22.281569 -1.737365,5.315003 -5.066294,9.632129 -7.573335,14.468342 -3.506809,6.764893 -7.616838,13.129975 -10.44733,20.350745 -2.318562,5.914787 -5.082558,12.038303 -5.264179,18.590551 -0.187208,6.752327 0.949725,14.229157 4.351483,19.561247 1.612734,2.52788 4.32815,4.11327 6.863334,4.71795 4.45923,1.06357 13.49003,-2.20171 13.49003,-2.20171"
       style="fill:none;fill-rule:evenodd;stroke:#000000;stroke-width:10.5833;stroke-linecap:butt;stroke-linejoin:miter;stroke-miterlimit:4;stroke-dasharray:none;stroke-opacity:1" />
    <path
       id="path4212-6-8"
       d="m -34.001826,20.745629 c 0,0 -3.652981,6.29629 -8.135602,13.179822 -3.404536,5.227982 -10.374955,11.897176 -13.927061,14.60725 -5.851359,4.464235 -9.512404,7.813093 -13.486459,12.786572 -3.898781,4.87926 -7.74624,10.189659 -9.940991,16.454887 -2.223301,6.346587 -4.038663,13.633291 -2.914546,20.39739 1.050562,6.32172 4.451937,12.2564 8.595082,16.26523 2.756579,2.66724 6.430356,4.04117 9.941036,4.33028 2.203923,0.18147 6.483737,-1.67056 6.483737,-1.67056"
       style="fill:none;fill-rule:evenodd;stroke:#000000;stroke-width:10.5833;stroke-linecap:butt;stroke-linejoin:miter;stroke-miterlimit:4;stroke-dasharray:none;stroke-opacity:1" />
    <path
       id="path4214-8-7"
       d="m -25.644848,25.522655 c 0,0 8.349041,12.108313 13.373026,17.032262 4.9678914,4.868942 11.35752837,7.265193 16.3316554,12.124663 4.703376,4.594966 9.6754226,9.41414 12.5445926,15.877487 4.01369,9.04166 5.93217,19.787685 5.65678,30.063993 -0.13675,5.10381 -1.00543,10.67072 -3.60286,14.67577 -2.24092,3.45533 -5.88738,5.51064 -9.3863876,6.60469 -4.58116,1.43238 -14.184609,-0.36973 -14.184609,-0.36973"
       style="fill:none;fill-rule:evenodd;stroke:#000000;stroke-width:10.5833;stroke-linecap:butt;stroke-linejoin:miter;stroke-miterlimit:4;stroke-dasharray:none;stroke-opacity:1" />
  </g>
</svg>
