<?xml version="1.0" encoding="UTF-8" standalone="no"?>
<svg
   xmlns:dc="http://purl.org/dc/elements/1.1/"
   xmlns:cc="http://creativecommons.org/ns#"
   xmlns:rdf="http://www.w3.org/1999/02/22-rdf-syntax-ns#"
   xmlns:svg="http://www.w3.org/2000/svg"
   xmlns="http://www.w3.org/2000/svg"
   width="123.75968mm"
   height="137.70465mm"
   viewBox="0 0 123.75969 137.70465"
   version="1.1"
   id="svg127">
  <defs
     id="defs121" />
  <metadata
     id="metadata124">
    <rdf:RDF>
      <cc:Work
         rdf:about="">
        <dc:format>image/svg+xml</dc:format>
        <dc:type
           rdf:resource="http://purl.org/dc/dcmitype/StillImage" />
        <dc:title></dc:title>
      </cc:Work>
    </rdf:RDF>
  </metadata>
  <g
     id="layer1"
     transform="translate(61.879845,27.274949)">
    <g
       id="g151">
      <path
         id="path4364-0-7-4"
         d="m -3.889375,49.032276 c -12.05638,0 -21.829117,8.534128 -21.829141,19.064743 0,10.530642 9.772756,19.071782 21.829138,19.071772 12.056354,0 21.82912,-8.54112 21.82912,-19.071767 -5e-6,-10.53062 -9.772763,-19.064724 -21.829117,-19.064748 z m -10.232803,12.726141 c 3.119377,0 5.645918,2.670614 5.645904,5.967815 1.4e-5,3.297203 -2.526524,5.967799 -5.645927,5.967789 -3.119374,0 -5.652519,-2.670586 -5.652532,-5.967789 1.3e-5,-3.297204 2.533155,-5.967818 5.652555,-5.967815 z m 20.47226,1.6e-5 c 3.119348,-3e-6 5.645888,2.670585 5.645875,5.967814 1.3e-5,3.297204 -2.526522,5.967764 -5.645872,5.967774 -3.119401,0 -5.645944,-2.670565 -5.645957,-5.967797 1.3e-5,-3.297201 2.526578,-5.967791 5.645954,-5.967791 z"
         style="opacity:0.99;fill:#000000;fill-opacity:1;stroke:none;stroke-width:0.264583" />
      <path
         id="path3823-1-8"
         d="m -3.885496,-12.155038 c -32.026495,-1.8e-5 -57.994347,27.440019 -57.994349,61.292388 -4e-6,33.852391 25.967855,61.29237 57.994349,61.29236 32.026548,2e-5 57.986571,-27.439969 57.986581,-61.292363 0,-33.852368 -25.960033,-61.29239 -57.986581,-61.292385 z M -23.30037,18.710259 c 4.838531,1.6e-5 8.760942,4.146036 8.760923,9.260414 8e-6,5.114406 -3.922376,9.260419 -8.760933,9.260427 -4.838531,1.1e-5 -8.760942,-4.14601 -8.76095,-9.260414 -8e-6,-5.114406 3.922406,-9.260419 8.76096,-9.260427 z m 40.050048,1.8e-5 c 4.838557,-8e-6 8.760968,4.146013 8.760976,9.26042 8e-6,5.11438 -3.922432,9.260416 -8.76096,9.260398 -4.838557,8e-6 -8.760941,-4.146011 -8.760949,-9.260417 1.8e-5,-5.114377 3.922405,-9.260417 8.760933,-9.260401 z M -3.893304,42.919636 c 15.921323,1.9e-5 28.832929,11.270308 28.832942,25.176745 -1.6e-5,13.90649 -12.91164,25.18507 -28.832937,25.18505 -15.921296,1e-5 -28.8251,-11.27858 -28.82511,-25.185042 1.3e-5,-13.90646 12.903808,-25.176745 28.825105,-25.176753 z"
         style="opacity:0.99;fill:#000000;fill-opacity:1;stroke:none;stroke-width:0.264583" />
      <path
         style="fill:#000000;fill-opacity:1;stroke:none;stroke-width:0.264583"
         d="m 9.224777,11.595203 c 0,0 7.88306,-17.32855 15.255619,-22.026414 10.79155,-6.876527 37.399449,-5.81943 37.399449,-5.81943 0,0 -6.16768,11.082918 -8.87808,16.83262895 C 48.121075,10.93553 39.736005,32.32595 39.736005,32.32595"
         id="path4404-00-4" />
      <path
         style="fill:#000000;fill-opacity:1;stroke:none;stroke-width:0.264583"
         d="m -17.003548,11.595198 c 0,0 -8.981356,-15.621569 -15.255613,-22.02642 -6.664305,-6.802985 -23.215069,-16.843727 -23.215069,-16.843727 0,0 -6.288938,18.460853 -5.306303,27.85694495 1.189039,11.36963005 13.265748,31.74393805 13.265748,31.74393805"
         id="path4404-0-0-7" />
    </g>
  </g>
</svg>
